<?xml version="1.0" encoding="UTF-8"?>
<svg width="134px" height="66px" viewBox="0 0 134 66" version="1.1" xmlns="http://www.w3.org/2000/svg" xmlns:xlink="http://www.w3.org/1999/xlink">
    <!-- Generator: Sketch 61 (89581) - https://sketch.com -->
    <title>al</title>
    <desc>Created with Sketch.</desc>
    <defs>
        <polygon id="path-1" points="0.0149058824 0.101076923 6.9987098 0.101076923 6.9987098 7.90452308 0.0149058824 7.90452308"></polygon>
        <polygon id="path-3" points="0.130698305 0.0922105263 83.9306644 0.0922105263 83.9306644 55.9528982 0.130698305 55.9528982"></polygon>
        <polygon id="path-5" points="0.0395012821 0.137041081 54.9570013 0.137041081 54.9570013 26 0.0395012821 26"></polygon>
        <polygon id="path-7" points="0 0.0244122271 58.979223 0.0244122271 58.979223 31.8602201 0 31.8602201"></polygon>
        <polygon id="path-9" points="0.00334722222 0.09344 19.9691806 0.09344 19.9691806 31.9712711 0.00334722222 31.9712711"></polygon>
        <polygon id="path-11" points="0.0526818038 0.0919197248 88.9314193 0.0919197248 88.9314193 60.9412945 0.0526818038 60.9412945"></polygon>
        <polygon id="path-13" points="0.000800896861 0.0926538462 93.9315303 0.0926538462 93.9315303 65.9999154 0.000800896861 65.9999154"></polygon>
        <polygon id="path-15" points="0.0696249541 0.09125 76.9311662 0.09125 76.9311662 49.9915139 0.0696249541 49.9915139"></polygon>
    </defs>
    <g id="Mobile" stroke="none" stroke-width="1" fill="none" fill-rule="evenodd">
        <g id="Desktop-HD" transform="translate(-828.000000, -4449.000000)">
            <g id="Group-13" transform="translate(328.000000, 3975.000000)">
                <g id="Group-11" transform="translate(496.000000, 0.000000)">
                    <g id="Group-10" transform="translate(4.000000, 143.000000)">
                        <g id="al" transform="translate(0.000000, 331.000000)">
                            <path d="M75.8118739,1.74878377 L76.918142,1.74878377 C77.6008096,1.74878377 77.9212087,1.97218666 77.9212087,2.51069005 C77.9212087,3.07463833 77.6008096,3.25963385 76.9048943,3.25963385 L75.8118739,3.25963385 L75.8118739,1.74878377 Z M75.8118739,4.03786327 L76.8048003,4.03786327 C76.8048003,4.10859685 76.8371836,4.22958008 76.871039,4.27582896 L78.0062559,6 L79,6 L77.6410435,3.94984637 C78.404833,3.73252464 78.7448583,3.20490334 78.7448583,2.51069005 C78.7448583,1.61547817 78.1833831,1 76.9048943,1 L75,1 L75,6 L75.8118739,6 L75.8118739,4.03786327 Z" id="Fill-1" fill="#F9F7E8"></path>
                            <g id="Group-5" transform="translate(74.000000, 0.000000)">
                                <mask id="mask-2" fill="white">
                                    <use xlink:href="#path-1"></use>
                                </mask>
                                <g id="Clip-4"></g>
                                <path d="M3.50392549,0.812830769 C5.0764549,0.812830769 6.34455294,2.24006154 6.34455294,4.00052308 C6.34455294,5.76329231 5.0764549,7.1876 3.50392549,7.1876 C1.93386667,7.1876 0.659866667,5.76329231 0.659866667,4.00052308 C0.659866667,2.24006154 1.93386667,0.812830769 3.50392549,0.812830769 M3.50392549,7.90452308 C5.43002353,7.90452308 6.9987098,6.15883077 6.9987098,4.00052308 C6.9987098,1.84452308 5.43002353,0.100984615 3.50392549,0.100984615 C1.5764549,0.100984615 0.0149058824,1.84452308 0.0149058824,4.00052308 C0.0149058824,6.15883077 1.5764549,7.90452308 3.50392549,7.90452308" id="Fill-3" fill="#F9F7E8" mask="url(#mask-2)"></path>
                            </g>
                            <g id="Group-8" transform="translate(50.000000, 0.000000)">
                                <mask id="mask-4" fill="white">
                                    <use xlink:href="#path-3"></use>
                                </mask>
                                <g id="Clip-7"></g>
                                <polygon id="Fill-6" fill="#F9F7E8" mask="url(#mask-4)" points="3.95867797 0.0921263158 0.130698305 0.0921263158 32.3301763 55.9528982 83.9306644 55.9528982 83.9306644 52.6657404 34.2680136 52.6657404"></polygon>
                            </g>
                            <polygon id="Fill-9" fill="#F9F7E8" points="27.8043908 50 19 66 21.8002048 66 29.239037 52.5276594 68 52.5276594 66.602621 50"></polygon>
                            <polygon id="Fill-11" fill="#F9F7E8" points="26 32 29.9328786 32 43 10.2903439 41.0223045 7"></polygon>
                            <polygon id="Fill-13" fill="#F9F7E8" points="33 31 36.484523 31 46 14.9612756 44.2424512 12"></polygon>
                            <g id="Group-17" transform="translate(7.000000, 40.000000)">
                                <mask id="mask-6" fill="white">
                                    <use xlink:href="#path-5"></use>
                                </mask>
                                <g id="Clip-16"></g>
                                <polygon id="Fill-15" fill="#F9F7E8" mask="url(#mask-6)" points="54.9570013 3.42330054 53.0824885 0.137041081 14.7390269 0.137041081 0.0395012821 26.0000141 3.82660385 26.0000141 16.6569756 3.42330054"></polygon>
                            </g>
                            <polygon id="Fill-18" fill="#F9F7E8" points="65 48.9753863 63.280891 46 25.4869762 46 14 66 17.445605 66 27.2449721 48.9753863"></polygon>
                            <g id="Group-22" transform="translate(0.000000, 34.000000)">
                                <mask id="mask-8" fill="white">
                                    <use xlink:href="#path-7"></use>
                                </mask>
                                <g id="Clip-21"></g>
                                <polygon id="Fill-20" fill="#F9F7E8" mask="url(#mask-8)" points="58.979223 4.00568734 56.6817517 0.0244122271 18.2703522 0.0244122271 -2.82296651e-05 31.8602201 4.68256746 31.8602201 20.6079096 4.00568734"></polygon>
                            </g>
                            <g id="Group-25" transform="translate(20.000000, 0.000000)">
                                <mask id="mask-10" fill="white">
                                    <use xlink:href="#path-9"></use>
                                </mask>
                                <g id="Clip-24"></g>
                                <polygon id="Fill-23" fill="#F9F7E8" mask="url(#mask-10)" points="19.9691806 4.18161778 17.7032083 0.0932977778 0.00334722222 31.9712711 4.57695833 31.9712711"></polygon>
                            </g>
                            <polygon id="Fill-26" fill="#F9F7E8" points="49 19.5136445 47.5664708 17 39 32 41.8760991 32"></polygon>
                            <g id="Group-30" transform="translate(45.000000, 0.000000)">
                                <mask id="mask-12" fill="white">
                                    <use xlink:href="#path-11"></use>
                                </mask>
                                <g id="Clip-29"></g>
                                <polygon id="Fill-28" fill="#F9F7E8" mask="url(#mask-12)" points="3.54818497 0.0918357798 0.0526818038 0.0918357798 34.8542166 60.9412945 88.9314334 60.9412945 88.9314334 57.9083633 36.6277388 57.9083633"></polygon>
                            </g>
                            <g id="Group-33" transform="translate(40.000000, 0.000000)">
                                <mask id="mask-14" fill="white">
                                    <use xlink:href="#path-13"></use>
                                </mask>
                                <g id="Clip-32"></g>
                                <polygon id="Fill-31" fill="#F9F7E8" mask="url(#mask-14)" points="2.77555725 0.0925692308 0.000800896861 0.0925692308 37.3241402 65.9999154 93.9315303 65.9999154 93.9315303 63.5796333 38.7271148 63.5796333"></polygon>
                            </g>
                            <g id="Group-36" transform="translate(57.000000, 0.000000)">
                                <mask id="mask-16" fill="white">
                                    <use xlink:href="#path-15"></use>
                                </mask>
                                <g id="Clip-35"></g>
                                <polygon id="Fill-34" fill="#F9F7E8" mask="url(#mask-16)" points="31.2502451 46.0405417 4.68185431 0.0912361111 0.0696249541 0.0912361111 28.8493993 49.9915139 76.9311662 49.9915139 76.9311662 46.0405417"></polygon>
                            </g>
                        </g>
                    </g>
                </g>
            </g>
        </g>
    </g>
</svg>