<?xml version="1.0" encoding="UTF-8"?>
<svg width="214px" height="48px" viewBox="0 0 214 48" version="1.1" xmlns="http://www.w3.org/2000/svg" xmlns:xlink="http://www.w3.org/1999/xlink">
    <!-- Generator: Sketch 61 (89581) - https://sketch.com -->
    <title>banco-atlantico</title>
    <desc>Created with Sketch.</desc>
    <g id="Mobile" stroke="none" stroke-width="1" fill="none" fill-rule="evenodd">
        <g id="Desktop-HD" transform="translate(-828.000000, -4231.000000)" fill="#F9F7E8" fill-rule="nonzero">
            <g id="Group-13" transform="translate(328.000000, 3975.000000)">
                <g id="Group-11" transform="translate(496.000000, 0.000000)">
                    <g id="Group-10" transform="translate(4.000000, 143.000000)">
                        <g id="banco-atlantico" transform="translate(0.000000, 113.000000)">
                            <path d="M70,35 L65.5131818,35 L63.3504615,29.8400704 L53.5581928,29.8400704 L51.361544,35 L47,35 L56.6052273,13 L60.3934677,13 L70,35 Z M55.1306453,26.0382462 L61.7710492,26.0382462 L58.4395378,18.3175046 L55.1306453,26.0382462 Z" id="Shape"></path>
                            <path d="M124,35 L119.513351,35 L117.349843,29.8400704 L107.55751,29.8400704 L105.362249,35 L101,35 L110.604864,13 L114.392526,13 L124,35 Z M109.129903,26.0382462 L115.770491,26.0382462 L112.438235,18.3175046 L109.129903,26.0382462 Z" id="Shape"></path>
                            <path d="M202.495344,13 C196.15703,13 191,18.1585056 191,24.5 C191,30.8406076 196.15703,36 202.495344,36 C208.838979,36 214,30.8406076 214,24.5 C214.000443,18.1585056 208.838979,13 202.495344,13 M202.495344,31.8542181 C198.440668,31.8542181 195.144248,28.5557719 195.144248,24.5 C195.144248,20.4451149 198.441111,17.1457819 202.495344,17.1457819 C206.555341,17.1457819 209.857969,20.4451149 209.857969,24.5 C209.857969,28.5557719 206.555785,31.8542181 202.495344,31.8542181" id="Shape"></path>
                            <path d="M183.615474,36 C180.503627,36 177.586997,34.8065138 175.401093,32.6333134 C173.208024,30.461887 172,27.572861 172,24.5011088 C172,21.4235909 173.207576,18.5345649 175.401988,16.3631385 C177.589684,14.1917121 180.503627,13.0088702 183.60831,13 C186.715232,13 189.632757,14.1952602 191.82314,16.3640255 L191.994179,16.5343335 L189.035909,19.467267 L188.866661,19.2987331 C185.966598,16.4323261 181.256291,16.4323261 178.366079,19.296072 C176.96015,20.6847028 176.18689,22.5341407 176.18689,24.5006653 C176.18689,26.4663029 176.960598,28.3121927 178.366079,29.6981623 C179.765291,31.085906 181.629713,31.8514048 183.615922,31.8522918 L183.619504,31.8522918 C185.603475,31.8522918 187.466105,31.086793 188.867108,29.7008234 L189.037253,29.5314025 L192,32.4674406 L191.829856,32.636418 C189.639026,34.8074008 186.722844,36 183.615474,36" id="Path"></path>
                            <rect id="Rectangle" x="165" y="13" width="5" height="22"></rect>
                            <polygon id="Path" points="157.147108 35 152.850254 35 152.850254 16.9811528 146 16.9811528 146 13 164 13 164 16.9811528 157.147108 16.9811528"></polygon>
                            <polygon id="Path" points="144 35 140.535139 35 140.383984 34.8216086 129.144407 20.1409161 129.144407 35 125 35 125 13 128.813946 13 139.858625 27.4286654 139.858625 13 144 13"></polygon>
                            <polygon id="Path" points="100 35 85 35 85 13 89.0974724 13 89.0974724 31.0845935 100 31.0845935"></polygon>
                            <polygon id="Path" points="76.1495359 35 71.8495848 35 71.8495848 16.9811528 65 16.9811528 65 13 83 13 83 16.9811528 76.1495359 16.9811528"></polygon>
                            <path d="M18.6671098,48 L13.3395369,48 L13.3395369,39.3984865 L13.2876925,39.3924324 C5.71131051,38.1236757 0,31.5061622 0,23.9995676 C0,16.4977297 5.71131051,9.88454054 13.2850338,8.61837838 L13.3390938,8.6092973 L13.3390938,0 L18.6666667,0 L18.6666667,8.60886486 L18.7220561,8.61794595 C26.2913482,9.88540541 32,16.4985946 32,23.9991351 C32,31.5057297 26.2913482,38.1232432 18.7216129,39.3907027 L18.6666667,39.3984865 L18.6666667,48 L18.6671098,48 Z M18.6671098,13.6860541 L18.6671098,34.316973 L18.7464274,34.2979459 C23.5489088,33.0828108 26.902847,28.8475676 26.902847,23.9995676 C26.902847,19.1615135 23.5493519,14.9288649 18.7464274,13.7055135 L18.6671098,13.6860541 Z M13.3395369,13.6838919 L13.2562313,13.7055135 C8.45729478,14.9275676 5.10557217,19.1597838 5.10557217,23.9995676 C5.10557217,28.8475676 8.45729478,33.0828108 13.2557882,34.2979459 L13.3395369,34.3195676 L13.3395369,13.6838919 Z" id="Shape"></path>
                        </g>
                    </g>
                </g>
            </g>
        </g>
    </g>
</svg>