<?xml version="1.0" encoding="UTF-8"?>
<svg width="236px" height="67px" viewBox="0 0 236 67" version="1.1" xmlns="http://www.w3.org/2000/svg" xmlns:xlink="http://www.w3.org/1999/xlink">
    <!-- Generator: Sketch 61 (89581) - https://sketch.com -->
    <title>cmnazare</title>
    <desc>Created with Sketch.</desc>
    <g id="Mobile" stroke="none" stroke-width="1" fill="none" fill-rule="evenodd">
        <g id="Desktop-HD" transform="translate(-829.000000, -4335.000000)" fill="#FFFFFF" fill-rule="nonzero">
            <g id="Group-13" transform="translate(328.000000, 3975.000000)">
                <g id="Group-11" transform="translate(496.000000, 0.000000)">
                    <g id="Group-10" transform="translate(4.000000, 143.000000)">
                        <g id="cmnazare" transform="translate(1.000000, 217.000000)">
                            <rect id="Rectangle" x="113.795848" y="0" width="1" height="67"></rect>
                            <g id="Group" transform="translate(122.000000, 20.000000)">
                                <polygon id="Path" points="1.78149153 8.21454545 1.78149153 26.6937662 0.292038741 26.6937662 0.292038741 5.33337662 1.42872639 5.33337662 16.0488814 24.1305195 16.0488814 5.33337662 17.5383341 5.33337662 17.5383341 26.6937662 16.1664697 26.6937662"></polygon>
                                <path d="M29.5323487,5.33337662 L30.8258208,5.33337662 L39.6449492,26.6937662 L38.0575061,26.6937662 L35.1569927,19.6597403 L25.2011768,19.6597403 L22.3006634,26.6937662 L20.6936223,26.6937662 L29.5323487,5.33337662 Z M34.7258354,18.3880519 L30.1790847,7.20116883 L25.5343438,18.3880519 L34.7258354,18.3880519 Z" id="Shape"></path>
                                <polygon id="Path" points="40.9580194 25.4220779 55.793753 6.70441558 41.1735981 6.70441558 41.1735981 5.31350649 57.5575787 5.31350649 57.5575787 6.58519481 42.8394334 25.3028571 57.4987845 25.3028571 57.4987845 26.6937662 40.9580194 26.6937662 40.9580194 25.4220779"></polygon>
                                <path d="M67.7681695,5.33337662 L69.0616416,5.33337662 L77.88077,26.6937662 L76.2933269,26.6937662 L73.3928136,19.6597403 L63.4369976,19.6597403 L60.5364843,26.6937662 L58.9294431,26.6937662 L67.7681695,5.33337662 Z M72.9616562,18.3880519 L68.4149056,7.20116883 L63.7701646,18.3880519 L72.9616562,18.3880519 Z" id="Shape"></path>
                                <path d="M81.0556562,26.6937662 L81.0556562,5.33337662 L89.718,5.33337662 C90.5999128,5.33337662 91.4034334,5.53207792 92.1481598,5.90961039 C92.8928862,6.28714286 93.5396223,6.80376623 94.06877,7.41974026 C94.5979177,8.05558442 95.0290751,8.77090909 95.323046,9.54584416 C95.6170169,10.3406494 95.7738015,11.1354545 95.7738015,11.9302597 C95.7738015,12.7051948 95.6562131,13.4602597 95.4210363,14.1954545 C95.1858596,14.9306494 94.8526925,15.5863636 94.4215351,16.1625974 C93.9903777,16.7388312 93.4808281,17.2355844 92.8732881,17.6131169 C92.2657482,17.9906494 91.599414,18.248961 90.8742857,18.3681818 L96.0677724,26.6738961 L94.3431429,26.6738961 L89.2868426,18.6066234 L82.5255109,18.6066234 L82.5255109,26.6738961 L81.0556562,26.6738961 L81.0556562,26.6937662 Z M82.545109,17.2157143 L89.8551864,17.2157143 C90.5215206,17.2157143 91.1290605,17.0567532 91.6778063,16.7587013 C92.2265521,16.4606494 92.6969056,16.0632468 93.0888668,15.5664935 C93.4808281,15.0697403 93.774799,14.5133766 93.9903777,13.8775325 C94.1863584,13.2416883 94.3039467,12.6058442 94.3039467,11.9302597 C94.3039467,11.2546753 94.1863584,10.598961 93.9315835,9.96311688 C93.6768087,9.32727273 93.3632397,8.77090909 92.9320823,8.29402597 C92.520523,7.81714286 92.0305714,7.41974026 91.4622276,7.14155844 C90.9134818,6.84350649 90.3059419,6.70441558 89.6592058,6.70441558 L82.545109,6.70441558 L82.545109,17.2157143 Z" id="Shape"></path>
                                <polygon id="Path" points="114 25.3028571 114 26.6937662 100.104973 26.6937662 100.104973 5.33337662 113.725627 5.33337662 113.725627 6.72428571 101.594426 6.72428571 101.594426 15.1094805 112.196978 15.1094805 112.196978 16.4407792 101.594426 16.4407792 101.594426 25.3227273 114 25.3227273"></polygon>
                                <polygon id="Path" points="106.41555 3.02844156 105.494441 2.5912987 107.101482 0.306233766 108.630131 0.306233766"></polygon>
                            </g>
                            <path d="M21.9969512,45 L18.4496951,45.4842371 L5.66768293,48.5712484 L1.9222561,52.4854981 L0,59.4665826 L1.8429878,61 L23.8597561,61 L26,57.6506936 L21.9969512,45 Z M2.00152439,60.4955864 L0.554878049,59.2849937 L2.29878049,52.7881463 L5.82621951,49.035309 L17.9146341,46.1298865 L16.4481707,48.369483 L15.5960366,53.3530895 L18.6676829,60.4955864 L2.00152439,60.4955864 Z M23.5823171,60.4955864 L19.2027439,60.4955864 L16.1112805,53.2925599 L16.8841463,48.6116015 L18.6280488,45.9684741 L18.6280488,45.9684741 L21.6402439,45.5649433 L25.445122,57.5699874 L23.5823171,60.4955864 Z" id="Shape"></path>
                            <path d="M101.922711,12.5745775 L101.922711,9.12270389 L87.1817418,8.88464364 L81.5950714,7 L72.3623635,8.50771492 L72.3623635,9.3806025 L69.4612153,9.3806025 L69.4612153,8.72593681 C69.4612153,8.34900808 69.3043965,8.01175606 69.0299636,7.77369581 C68.5007001,7.29757531 67.5597872,7.33725202 67.0893307,7.83321087 C66.8541025,8.07127112 66.7364884,8.38868479 66.7364884,8.74577517 L66.7364884,9.36076414 L64.9722767,9.36076414 L64.9722767,14.0822924 L64.9722767,14.0822924 L64.9722767,14.0822924 L58.1114534,14.3798677 L46.2716326,22.8706833 L46.2716326,31.3813373 L36,41.0426157 L42.4883786,57.6274798 L55.5631476,61 L106,61 L106,12.5745775 L101.922711,12.5745775 Z M87.3777653,9.3806025 L101.432652,9.61866275 L101.432652,12.5547392 L97.1397368,12.5547392 L87.3777653,16.859662 L87.3777653,9.3806025 L87.3777653,9.3806025 Z M81.8106973,7.59515062 L86.8877065,9.32108744 L86.8877065,17.0382072 L86.8877065,17.0382072 L81.8106973,17.6531962 L81.8106973,17.6531962 L81.8106973,17.6531962 L81.8106973,7.59515062 Z M81.3206385,7.55547392 L81.3206385,7.55547392 L81.3010361,17.6531962 L72.8328199,16.4628949 L72.8328199,8.96399706 L81.3206385,7.55547392 Z M67.2265472,8.76561352 C67.2265472,8.54739162 67.3049566,8.36884644 67.4421731,8.2101396 C67.5989919,8.03159442 67.8342201,7.952241 68.108653,7.952241 C68.3438813,7.952241 68.5595071,8.03159442 68.716326,8.17046289 C68.8731448,8.30933137 68.9711565,8.52755327 68.9711565,8.74577517 L68.9711565,9.3806025 L67.2265472,9.3806025 L67.2265472,8.76561352 L67.2265472,8.76561352 Z M65.4427331,9.89639971 L72.3427611,9.89639971 L72.3427611,13.7648788 L65.4427331,14.0624541 L65.4427331,9.89639971 Z M58.2682722,14.8758266 L72.3623635,14.2608376 L72.3623635,14.2608376 L72.3623635,14.2608376 L72.3623635,16.859662 L81.5558667,18.1689934 L87.1621395,17.4944893 L96.8849062,13.1895665 L96.5124615,20.7083027 L96.5124615,20.7083027 L96.5124615,20.7083027 L88.3382806,28.8817046 L88.3382806,28.8817046 L88.3382806,28.8817046 L64.0313638,20.5297575 L47.4477737,22.6127847 L58.2682722,14.8758266 Z M88.2402688,56.1991183 L88.2402688,56.1991183 L88.2402688,56.1991183 L83.908149,55.286554 L74.1853822,49.6921381 L64.3842061,21.2042616 L64.3842061,21.2042616 L64.3842061,21.2042616 L88.1226547,29.3776635 L88.2402688,56.1991183 Z M46.7420891,23.2277737 L63.8353402,21.0852314 L63.8353402,21.0852314 L73.4600952,49.1366642 L73.4600952,49.1366642 L73.4600952,49.1366642 L58.366284,36.6583395 L46.7420891,31.3218222 L46.7420891,31.3218222 L46.7420891,23.2277737 L46.7420891,23.2277737 L46.7420891,23.2277737 Z M55.3867264,60.4445261 L42.8412209,57.191036 L36.5684682,41.1616458 L46.5460655,31.7781043 L46.5460655,31.7781043 L57.9350322,36.9955915 L57.9350322,36.9955915 L57.9350322,36.9955915 L57.9350322,36.9955915 L55.3867264,60.4445261 Z M105.529544,60.5040411 L55.8767852,60.5040411 L55.8767852,60.5040411 L58.4054887,37.3328435 L58.4054887,37.3328435 L58.4054887,37.3328435 L73.8521423,50.1087436 L83.6925231,55.7626745 L88.4754971,56.7744306 L105.509941,56.7744306 L105.509941,60.5040411 L105.529544,60.5040411 Z M105.529544,25.5885378 L105.529544,56.2586334 L88.7303276,56.2586334 L88.7303276,56.2586334 L88.6323159,29.2784717 L88.6323159,29.2784717 L88.6323159,29.2784717 L96.7868944,21.1249082 L105.529544,25.5885378 L105.529544,25.5885378 Z M105.529544,25.0330639 L97.0025203,20.6884644 L97.0025203,20.6884644 L97.0025203,20.6884644 L97.3945673,13.0705364 L97.3945673,13.0705364 L105.549146,13.0705364 L105.529544,25.0330639 L105.529544,25.0330639 L105.529544,25.0330639 Z" id="Shape"></path>
                        </g>
                    </g>
                </g>
            </g>
        </g>
    </g>
</svg>