<?xml version="1.0" encoding="UTF-8"?>
<svg width="84px" height="99px" viewBox="0 0 84 99" version="1.1" xmlns="http://www.w3.org/2000/svg" xmlns:xlink="http://www.w3.org/1999/xlink">
    <!-- Generator: Sketch 61 (89581) - https://sketch.com -->
    <title>paladin</title>
    <desc>Created with Sketch.</desc>
    <defs>
        <polygon id="path-1" points="0 0.211342972 83.9999436 0.211342972 83.9999436 23.9280588 0 23.9280588"></polygon>
    </defs>
    <g id="Mobile" stroke="none" stroke-width="1" fill="none" fill-rule="evenodd">
        <g id="Desktop-HD" transform="translate(-829.000000, -4564.000000)">
            <g id="Group-13" transform="translate(328.000000, 3975.000000)">
                <g id="Group-11" transform="translate(496.000000, 0.000000)">
                    <g id="Group-10" transform="translate(4.000000, 143.000000)">
                        <g id="paladin" transform="translate(1.000000, 446.000000)">
                            <g id="Group-3">
                                <mask id="mask-2" fill="white">
                                    <use xlink:href="#path-1"></use>
                                </mask>
                                <g id="Clip-2"></g>
                            </g>
                            <path d="M84,22.5475978 C83.4196107,23.6834231 82.488,24.0011266 81.235047,24 C55.0803221,23.9726039 28.9258792,23.9731687 2.77115436,23.998585 C1.52214765,24 0.571087248,23.707145 0,22.5475978 L0,21.1386886 C0.102040268,20.8859379 0.251154362,20.6419416 0.298791946,20.3795891 C2.01769128,10.9286864 7.33957047,4.35518912 16.440604,1.35098478 C25.5884295,-1.66846932 33.8277584,0.434586675 40.8738926,7.04705561 C41.2372349,7.38791617 41.6064966,7.72199906 42.0118389,8.09448876 C42.4557987,7.67737936 42.8013826,7.36786555 43.1306174,7.04168995 C56.2022013,-5.90395124 78.3122416,0.0208661118 83.1543624,17.7704667 C83.4587919,18.8870886 83.7192483,20.0155715 84,21.1386886 L84,22.5475978 Z" id="Fill-1" fill="#F9F7E8"></path>
                            <path d="M22.9891624,44.0019307 C27.4999491,44.0019307 32.0107359,43.9970723 36.5218047,44.0045027 C38.3794861,44.0076464 38.9376932,44.5812153 38.96731,46.4522447 C39.0880339,54.0483897 39.2059372,61.6445346 39.3334307,69.2406796 C39.3991519,73.1324893 39.4823611,77.0237275 39.5604932,80.9149656 C39.5669807,81.2467611 39.4738991,81.6765806 39.6408817,81.8900614 C40.0332344,82.3924701 40.5609784,83.1415106 41.0227192,83.1335086 C41.4838958,83.1249351 42.2556262,82.3616054 42.3236039,81.8514805 C42.523024,80.3556859 42.4400968,78.8215961 42.4680213,77.3020813 C42.6564408,66.9549773 42.8442963,56.6078733 43.0341262,46.2604835 C43.063743,44.6566624 43.6718756,44.0096468 45.2452353,44.0079321 C54.4078414,43.9970723 63.5704475,43.9982155 72.7327716,44.0062174 C74.413034,44.0076464 75.0369623,44.6212251 74.9983193,46.3362163 C74.780565,55.8911264 72.6120477,65.0190749 68.9872277,73.8089406 C66.2362458,80.4794304 62.7174824,86.6729464 57.5006864,91.7233254 C52.7117833,96.3593172 47.1607401,99.1937253 40.3325056,98.9896753 C34.2833352,98.8090597 29.2910632,96.2261418 24.9571313,92.1797228 C19.2836718,86.8824262 15.5606931,80.2599481 12.6991416,73.115628 C9.3098461,64.6547 7.25443695,55.8765514 7.00480925,46.7168809 C6.94303697,44.4588997 7.45583151,44.0033596 9.73858522,44.0025022 C14.1554443,44 18.5723033,44.0019307 22.9891624,44.0019307" id="Fill-7" fill="#F9F7E8"></path>
                            <path d="M72.3042002,34.1895934 C72.3042002,35.8152482 72.2971427,37.440903 72.3068467,39.0665578 C72.312728,40.1085431 72.0560119,40.9710894 70.7471422,40.9992588 C69.392987,41.0282732 69.0112946,40.2023471 69.0142353,39.0702198 C69.0215868,36.0783502 68.9518941,33.084227 69.0671664,30.0963011 C69.0924557,29.4385461 69.5964779,28.5447317 70.166958,28.2190937 C71.0038583,27.7413411 71.9719102,28.0810638 72.6188465,28.8878348 C73.7786267,30.3337689 74.9328198,31.7839285 76.0931882,33.2298627 C76.5007581,33.7377566 76.9180319,34.2388898 77.6517165,34.6695996 C77.6517165,33.4749363 77.6455412,32.2805546 77.654363,31.086173 C77.6584799,30.5264475 77.5020389,29.8627769 77.7590491,29.4326305 C78.0936916,28.8726233 78.7053404,28.2368404 79.3102258,28.1041627 C80.2379912,27.9010615 80.9425636,28.5779716 80.9581489,29.4813636 C81.0149028,32.8461957 81.0219603,36.2135632 80.9287427,39.5767052 C80.9158039,40.0372745 80.2521062,40.8324961 79.8512997,40.8553133 C79.1237905,40.8967223 78.1163343,40.6865787 77.6696542,40.205164 C76.1819949,38.600918 74.8931215,36.8285007 73.523381,35.12369 C73.2316715,34.7608684 72.920554,34.4124132 72.6182583,34.0571973 C72.5135723,34.1014232 72.4085922,34.1453675 72.3042002,34.1895934" id="Fill-9" fill="#F9F7E8"></path>
                            <path d="M54.3832876,31.0640524 L54.3832876,37.8614637 C56.1811578,37.9974518 57.9355104,38.2395561 59.0524597,36.5061351 C59.892376,35.2025843 59.8747414,33.7880809 59.0390916,32.4916425 C57.9355104,30.779274 56.1948103,30.9306248 54.3832876,31.0640524 M51.0071257,34.5044364 C51.0057036,33.0415691 50.9903444,31.5787017 51.0096856,30.1161189 C51.0304488,28.5508338 51.5722844,28.0074505 53.1670729,28.010011 C54.581534,28.0120024 56.0181804,27.9405945 57.4067586,28.1525424 C60.8668267,28.6808475 62.9607866,31.0979071 62.9994688,34.3966132 C63.0387199,37.7237687 60.9001048,40.3015674 57.4337792,40.830726 C55.859754,41.0708388 54.2277054,40.9980084 52.6249529,40.9553343 C51.5674491,40.9268849 51.0227692,40.2301595 51.0122454,39.1755408 C50.9974551,37.6187905 51.0085478,36.0614712 51.0071257,34.5044364" id="Fill-11" fill="#F9F7E8"></path>
                            <path d="M19.8525856,35.2101296 C19.4024921,34.0928657 19.0365763,33.1844779 18.5260695,31.916421 C18.0267291,33.2154742 17.6633903,34.160164 17.2596805,35.2101296 L19.8525856,35.2101296 Z M12,39.676393 C12.2373585,39.0159758 12.3513134,38.6149782 12.5219596,38.2385544 C13.8252838,35.3612018 15.1492229,32.4925058 16.4453892,29.6120815 C16.8774446,28.6514747 17.4366256,27.9729065 18.6589215,28.0008311 C19.831398,28.0276387 20.310696,28.7447429 20.7112563,29.6338627 C21.9899571,32.4712831 23.2646494,35.3106582 24.5699778,38.1366295 C25.0306651,39.1338176 25.3908544,40.1022434 24.1645501,40.7939361 C23.224851,41.3236661 22.2155765,40.819906 21.7050696,39.4228374 C21.3182526,38.3639359 20.7410335,37.9302666 19.6080691,38.0933464 C19.0955581,38.1670674 18.5544151,38.1634372 18.0404725,38.0950219 C16.602292,37.9031797 15.5970259,38.209792 15.207632,39.7872537 C14.9880253,40.6774905 14.1705845,41.2108507 13.214279,40.8489476 C12.706349,40.656547 12.3653431,40.0461149 12,39.676393 L12,39.676393 Z" id="Fill-13" fill="#F9F7E8"></path>
                            <path d="M43.7805723,35.1870591 C43.3113812,34.0629349 42.9257997,33.1396579 42.3994323,31.8787206 C41.9127147,33.212719 41.5725296,34.1438944 41.1918326,35.1870591 L43.7805723,35.1870591 Z M49,39.782005 C48.6782033,40.0906103 48.2794052,40.7930116 47.8024565,40.848019 C47.2249464,40.9151561 46.121356,40.5346182 46.0403322,40.175519 C45.4958637,37.7633769 43.6940894,38.1557626 41.940872,38.0753673 C40.461469,38.0076659 39.4986648,38.3004742 39.0849261,39.8274214 C38.8059399,40.8587383 37.9457083,41.2336345 36.9423921,40.8567637 C35.841675,40.4432214 35.8448355,39.5354594 36.2467941,38.6336212 C37.6592518,35.4646346 39.0481494,32.2826719 40.5844413,29.1712314 C40.8671627,28.598591 41.7710667,28.0595191 42.4321866,28.0036655 C43.0280851,27.9531716 44.0101397,28.4324406 44.2606815,28.9424573 C45.8521386,32.1828124 47.2901676,35.4951002 48.7689959,38.7879238 C48.8629491,38.9972337 48.8776023,39.2412406 49,39.782005 L49,39.782005 Z" id="Fill-15" fill="#F9F7E8"></path>
                            <path d="M5.21893804,34.27439 C6.45582898,34.1482907 7.79513064,34.7566346 8.59464815,33.395103 C8.83406411,32.9875523 8.80907919,32.0991771 8.53095033,31.7418957 C7.68777784,30.6598274 6.45720178,30.9284984 5.21893804,31.0330132 L5.21893804,34.27439 Z M5.11982203,37.2632842 C5.11982203,38.0800896 5.15002359,38.7795999 5.11240893,39.4751341 C5.06271364,40.4055425 4.59294219,40.9741254 3.65175193,40.999118 C2.65894447,41.0252467 2.05189322,40.4697282 2.03898892,39.4785422 C1.99560851,36.1763878 1.96348504,32.8711093 2.08456581,29.5729309 C2.10405955,29.040417 2.89616395,28.1350013 3.38268354,28.0963763 C5.09950463,27.9600527 6.86766836,27.9407402 8.56252468,28.2219076 C10.9152258,28.6121338 12.0670032,30.3102142 11.9969905,32.7504061 C11.9321945,35.0085492 10.5868525,36.6464201 8.36072338,37.0323862 C7.37999654,37.2027907 6.36824447,37.1812061 5.11982203,37.2632842 L5.11982203,37.2632842 Z" id="Fill-17" fill="#F9F7E8"></path>
                            <path d="M30.3949633,38.0539377 C32.1159073,38.0539377 33.6498506,38.0545062 35.1834951,38.0539377 C36.2836925,38.0530849 37.0511122,38.4291623 36.997342,39.6094142 C36.9471565,40.7095044 36.1863087,41.0034303 35.159896,40.9957553 C33.1199157,40.9798366 31.0790393,40.9673292 29.0393577,40.9994507 C27.751861,41.0199175 27.0337306,40.4690196 27.0217817,39.2572147 C26.9907145,36.0916837 26.995494,32.9253 27.0196906,29.759769 C27.0277561,28.7273328 27.5723284,27.9862643 28.721815,28.0001931 C29.9429952,28.0152589 30.4173675,28.7583173 30.4045225,29.8910976 C30.3746501,32.5335882 30.3949633,35.1766474 30.3949633,38.0539377" id="Fill-19" fill="#F9F7E8"></path>
                            <path d="M67.9969374,34.5691196 C67.9964164,36.1147848 68.0065756,37.66045 67.992509,39.2058324 C67.9836523,40.2167642 67.6184414,40.9497251 66.5777726,40.9975146 C65.457393,41.0489802 65.0254959,40.2959421 65.0174206,39.2247786 C64.9934553,36.0870725 64.9955392,32.948801 65.0155972,29.8108122 C65.02237,28.7424764 65.4508806,27.9473044 66.5535467,28.0027289 C67.631466,28.0570223 67.9995423,28.8612433 67.9979794,29.9324068 C67.9958954,31.478072 67.9974584,33.0234544 67.9969374,34.5691196" id="Fill-21" fill="#F9F7E8"></path>
                        </g>
                    </g>
                </g>
            </g>
        </g>
    </g>
</svg>