<?xml version="1.0" encoding="UTF-8"?>
<svg width="237px" height="48px" viewBox="0 0 237 48" version="1.1" xmlns="http://www.w3.org/2000/svg" xmlns:xlink="http://www.w3.org/1999/xlink">
    <!-- Generator: Sketch 61 (89581) - https://sketch.com -->
    <title>standard bank</title>
    <desc>Created with Sketch.</desc>
    <g id="Mobile" stroke="none" stroke-width="1" fill="none" fill-rule="evenodd">
        <g id="Desktop-HD" transform="translate(-828.000000, -4118.000000)" fill="#F9F7E8">
            <g id="Group-13" transform="translate(328.000000, 3975.000000)">
                <g id="Group-11" transform="translate(496.000000, 0.000000)">
                    <g id="Group-10" transform="translate(4.000000, 143.000000)">
                        <g id="standard-bank">
                            <path d="M21.5820642,26.483622 C23.8537726,30.7326752 26.1056271,34.944695 28.3748972,39.188857 C30.5138977,37.4542287 32.2561678,35.4121538 33.6058872,33.0385255 C34.9496853,30.676077 35.7964383,28.1595559 35.9772136,25.319517 C32.6340892,28.666843 25.9673461,28.9641579 21.5820642,26.483622 L21.5820642,26.483622 Z M9.36039848,4.52808435 C10.4426122,5.36692473 11.4391405,6.1439264 12.444725,6.90974819 C12.5293655,6.97438187 12.6784442,6.99569351 12.7885116,6.97857432 C13.5419163,6.86153495 14.288703,6.66309208 15.0448942,6.61732445 C16.0243551,6.55863008 17.0494452,6.45032499 17.9860634,6.66483894 C19.4228615,6.99359729 20.8164685,7.53931518 22.2006711,8.06476955 C24.4647166,8.9245722 26.7367733,9.62960339 29.2139873,9.35185324 C31.3355721,9.11428079 33.3021568,8.47597951 35.1106067,7.33947483 C35.3356179,7.19797947 35.4004045,7.03098001 35.3610449,6.78467328 C35.3011348,6.41399038 35.2318202,6.04260874 35.210573,5.66878149 C35.1942022,5.38648952 35.1088651,5.24534354 34.8107077,5.19852779 C32.5501454,4.84461471 30.2989876,4.41873115 28.0307623,4.1277049 C25.2564358,3.77169559 22.4608622,3.73326475 19.6635469,3.76086508 C16.7540743,3.7898629 13.8574894,3.98446268 10.9675224,4.30099304 C10.4481852,4.35794055 9.93198288,4.44633148 9.36039848,4.52808435 L9.36039848,4.52808435 Z M3.69192526,14.8198627 C3.65570053,14.825802 3.61982412,14.8317413 3.58394771,14.83803 C3.5055769,15.9598611 3.39237463,17.0802947 3.35545327,18.2038727 C3.26245325,21.0495015 3.38088024,23.8842999 3.91972306,26.6894017 C4.41293666,29.2576298 5.25481326,31.6815675 6.81491474,33.8162259 C9.71602777,37.7854327 13.541568,40.623026 17.8453442,42.8764706 C17.8972431,42.9033722 17.9651645,42.8995291 18.0456252,42.9142027 C13.5199725,33.3868486 8.81110621,23.9981949 3.69192526,14.8198627 L3.69192526,14.8198627 Z M19.9787717,48 C18.9481085,47.631064 17.8965465,47.3113893 16.8902654,46.8855057 C12.2622081,44.925533 8.2416117,42.1253224 5.10225143,38.150875 C2.42580137,34.7616245 0.841666176,30.9063127 0.254755929,26.6261655 C-0.115154269,23.9304169 0.0227783471,21.2245365 0.0360143052,18.5221499 C0.0461154311,16.4318617 0.116823313,14.3412241 0.211216593,12.2530321 C0.325812125,9.72043992 0.457126762,7.1854021 0.939542603,4.68879513 C1.0604078,4.06342059 1.25198088,3.44817781 1.45609328,2.84376554 C1.62154276,2.35394705 1.9663743,2.03951292 2.51044184,1.94867639 C4.73129629,1.57834286 6.93926309,1.1087879 9.17161192,0.83278461 C11.9027474,0.494942608 14.6492087,0.245142163 17.3963666,0.0840820149 C20.3434572,-0.0885073841 23.2978624,0.0177014768 26.2386833,0.283223629 C28.6061782,0.497038836 30.9754147,0.730418833 33.3265388,1.07420015 C34.7072582,1.27613673 36.057326,1.69747846 37.41436,2.04719909 C38.1151691,2.22747465 38.5129445,2.70296893 38.6062929,3.43769667 C38.84663,5.32989138 39.1702143,7.21439992 39.331484,9.11288331 C39.5861021,12.1111874 39.793001,15.1157802 39.9121246,18.1221198 C40.017664,20.7811844 40.0869786,23.4493327 39.7623493,26.1028073 C39.219675,30.5394729 37.5623937,34.5107759 34.754629,37.9926098 C32.669269,40.5790052 30.1638415,42.686762 27.383942,44.4821809 C27.3146273,44.5269004 27.2421779,44.56603 27.1300205,44.6317117 C26.7273688,43.8431808 26.3292451,43.0700222 25.9366944,42.2937193 C22.9077499,36.3044479 19.8836818,30.3134297 16.8435912,24.330447 C16.6534114,23.9566197 16.6906811,23.7585262 17.0365575,23.5240981 C18.4332994,22.5776514 19.9749402,22.3931834 21.5524575,22.789021 C22.9770645,23.1464278 24.3556941,23.685857 25.7594023,24.1302572 C26.8506722,24.475436 27.956223,24.7542343 29.1175041,24.6640965 C30.3609876,24.5673207 31.5062463,24.128161 32.5954263,23.5656733 C33.6692805,23.0115705 34.6954155,22.3648843 35.7483708,21.7695557 C35.9869664,21.6346984 36.057326,21.4638558 36.0444383,21.1937919 C35.8998877,18.2014271 35.7633484,15.2087129 35.6351686,12.2153 C35.6107865,11.6486199 35.6316854,11.0801928 35.6316854,10.4792743 C34.8302133,10.8820993 34.1649323,11.2985499 33.4442692,11.564072 C30.0377516,12.820411 26.6106833,12.8025931 23.193368,11.5944673 C21.6607833,11.0525925 20.1637268,10.4006657 18.6126815,9.92062964 C15.732119,9.02868484 12.9522195,9.43919606 10.2865672,10.7891666 C10.2130728,10.8261999 10.1385335,10.8618358 9.96507277,10.946733 C9.96507277,10.3541994 9.93929749,9.81651701 9.97238738,9.28267774 C10.0037357,8.77818565 9.85500533,8.39038356 9.44190411,8.09341799 C8.15418471,7.1672348 6.87273498,6.23301607 5.58571221,5.30578476 C5.46275713,5.21739384 5.31994811,5.15380827 5.18201549,5.08812647 C4.77797045,4.89562291 4.6605884,4.93929432 4.6083412,5.39417569 C4.52509399,6.11283236 4.44811645,6.83638022 4.43940858,7.55887997 C4.42686925,8.57520095 4.45821757,9.59396752 4.51917264,10.608891 C4.53380186,10.8565952 4.69785808,11.1228161 4.86121766,11.3261502 C5.02248736,11.5266893 5.25237506,11.6887976 5.48121781,11.8145712 C6.26213933,12.242551 6.72818439,12.9115969 7.11585863,13.6962848 C9.04029728,17.5917742 10.9776236,21.4806257 12.9435117,25.3548035 C14.9595571,29.3278534 17.0128721,33.2813385 19.0519063,37.2425097 C20.5747381,40.2013349 22.1010531,43.1584132 23.6249299,46.1165396 C23.6688175,46.2014368 23.7019074,46.2919239 23.7806265,46.4728983 C22.5590869,46.9861246 21.3525248,47.4930623 20.1459628,48 L19.9787717,48 Z" id="Fill-4"></path>
                            <path d="M178.703294,16.3731861 C180.140439,16.3593214 181.544507,16.4805484 182.916186,16.0749181 C183.929872,15.7748726 184.586596,15.1129238 184.771968,14.0236591 C184.840535,13.6215839 184.88326,13.2052885 184.866376,12.7985917 C184.797465,11.112791 184.093881,10.1913242 182.556125,10.0061065 C181.35948,9.86212731 180.140439,9.91723045 178.931046,9.88630159 C178.615776,9.878125 178.683998,10.1252004 178.683654,10.3100626 C178.681242,12.1960122 178.681931,14.0816063 178.682965,15.9672004 C178.682965,16.0788287 178.693991,16.1901015 178.703294,16.3731861 L178.703294,16.3731861 Z M178.710874,26.1143558 C179.977808,26.0645852 181.203396,26.0649407 182.418991,25.9536679 C183.515026,25.8537712 184.373316,25.2977627 184.809869,24.2010323 C185.147879,23.3513774 185.197151,22.4629725 185.024183,21.5724345 C184.780237,20.3178603 184.044954,19.4682054 182.809029,19.3210267 C181.516942,19.1670934 180.204182,19.1948227 178.90038,19.1677978 C178.829746,19.1663823 178.692268,19.3949715 178.691579,19.5169095 C178.67883,21.6008749 178.682276,23.6848403 178.683309,25.7691612 C178.683309,25.8509272 178.696058,25.9330486 178.710874,26.1143558 L178.710874,26.1143558 Z M175,7.00813986 L175.467219,7.00813986 C177.451175,7.00813986 179.435476,6.9853876 181.418744,7.01596095 C182.737706,7.0365802 184.061492,7.07390813 185.338763,7.49482507 C187.32272,8.14895273 188.45321,9.63176061 188.501448,11.7758062 C188.520743,12.6183511 188.493523,13.4907583 188.304017,14.3037964 C187.900197,16.0361682 186.7163,17.0305133 185.091027,17.5100884 C184.921161,17.5602145 184.748538,17.600742 184.461178,17.6757534 C184.782305,17.7429437 184.99214,17.7841821 185.200596,17.8314642 C187.301013,18.3060623 188.741948,19.5872993 188.968666,22.2958855 C189.193662,24.984208 188.228559,27.456384 185.371841,28.4553507 C184.589008,28.7294444 183.734508,28.8826667 182.907572,28.908263 C180.347517,28.9861184 177.785395,28.9765198 175.223962,28.9999889 C175.157807,29.0003386 175.091307,28.9843409 175,28.9726093 L175,7.00813986 Z" id="Fill-6"></path>
                            <path d="M117.351275,21.4761853 L117.351275,19.0872513 C117.351275,17.6681867 117.257252,17.5223253 115.989315,16.9733494 C115.913479,16.9406939 115.837299,16.9076755 115.760091,16.879374 C114.018951,16.2393255 112.642922,16.9798805 112.114815,18.8459631 C111.73186,20.2004423 111.733576,21.5868513 111.838579,22.9768887 C111.902062,23.8172246 112.056822,24.6390556 112.451787,25.3872303 C112.957246,26.3436747 113.804825,26.7729136 114.828783,26.625238 C115.756316,26.4913503 116.509186,26.0276417 117.114501,25.2965205 C117.243526,25.1408624 117.336519,24.8963087 117.34098,24.6898531 C117.362942,23.6191143 117.351275,22.5476498 117.351275,21.4761853 M117.351275,15.2520397 L117.351275,14.646098 C117.351275,12.1258162 117.35951,9.60589712 117.342353,7.08597807 C117.339607,6.70427111 117.443239,6.55913539 117.800457,6.50870072 C118.842602,6.36102512 119.880972,6.17742843 120.970814,6 C120.978707,6.18033114 120.990374,6.33236081 120.990374,6.48402765 C120.991403,14.0441476 120.987629,21.6046304 120.999988,29.1647504 C121.001012,29.596892 120.870272,29.6966729 120.486974,29.6846992 C119.612629,29.6563977 118.737255,29.675991 117.846096,29.675991 C117.762368,29.0500932 117.684816,28.4680989 117.589763,27.7583852 C117.365,28.0123727 117.212299,28.2035891 117.041411,28.3744864 C115.592977,29.8225781 113.900907,30.3613945 111.970692,29.7540015 C110.287887,29.2246189 109.301333,27.9017068 108.69087,26.2337344 C107.972315,24.2707737 107.916725,22.222183 108.069083,20.1590786 C108.169626,18.7962541 108.431449,17.4693508 109.015146,16.2324315 C109.87851,14.4040842 111.251794,13.3754348 113.208775,13.3224602 C114.414945,13.2898047 115.497238,13.7077956 116.448792,14.4929799 C116.718507,14.7154004 116.984448,14.9432634 117.351275,15.2520397" id="Fill-8"></path>
                            <path d="M159.403313,21.4711578 C159.403313,20.6601902 159.314124,19.8354343 159.424581,19.0415206 C159.583404,17.8960061 159.020146,17.3764063 158.145415,17.0208142 C158.055884,16.9845293 157.967382,16.9457045 157.877508,16.9119595 C156.078306,16.2359717 154.73225,16.9391732 154.161102,18.8579189 C153.801262,20.0665691 153.817728,21.3118671 153.859577,22.5578907 C153.891479,23.5056524 154.036239,24.4294661 154.444446,25.2857899 C154.814235,26.0611983 155.391557,26.5670099 156.229583,26.6381283 C157.513551,26.7466201 158.503541,26.1344938 159.305206,25.1326676 C159.388219,25.0285299 159.398167,24.8373084 159.399196,24.6860004 C159.406743,23.6145071 159.403313,22.5430139 159.403313,21.4711578 M163,6 L163,29.6806176 L160.934606,29.6806176 C159.847539,29.6806176 159.848568,29.6802547 159.731251,28.5238548 C159.70964,28.3090482 159.674994,28.0960558 159.633144,27.7843684 C159.489071,27.9469248 159.394051,28.0532396 159.299717,28.16028 C157.624007,30.064149 155.094148,30.5492782 153.08707,29.3384509 C152.020241,28.6947567 151.279293,27.7234098 150.859079,26.5299993 C149.672532,23.1642115 149.716441,19.7770156 150.982571,16.4558582 C151.733467,14.487765 153.185177,13.3919609 155.235821,13.3273737 C156.472107,13.288186 157.574611,13.7261448 158.543675,14.5356611 C158.801292,14.7508305 159.054792,14.9710799 159.369353,15.2395882 L159.369353,6.61067495 C160.590888,6.40530239 161.771947,6.20646111 163,6" id="Fill-10"></path>
                            <path d="M50,28.31339 C50.424175,27.3621073 50.8168436,26.4807665 51.2121653,25.5943523 C51.7825961,25.8465781 52.3185357,26.1263458 52.8786854,26.322763 C54.2593268,26.8076454 55.6721378,27.0355908 57.1002046,26.6134025 C58.7265955,26.1321441 59.596834,24.6825705 59.3232263,23.0032394 C59.2124566,22.3241142 58.89275,21.7591428 58.3578054,21.4293648 C57.6480834,20.991956 56.8959108,20.6292002 56.1437381,20.2809401 C55.2191097,19.8529535 54.2516989,19.5289738 53.3456427,19.0611239 C50.7946233,17.7430991 50.0394658,15.4890121 50.2875369,12.7206889 C50.6138763,9.07791036 52.9984095,7.43518105 55.669153,7.08764577 C57.8231924,6.80787806 59.8883507,7.21665782 61.8987874,8.04617633 C62.0682584,8.11611826 62.2304332,8.20671661 62.4181447,8.29840214 C62.1448686,9.24026261 61.8828684,10.1426222 61.6148986,11.064551 C60.9499488,10.869221 60.3228067,10.649973 59.6817354,10.5042908 C58.4456915,10.2230735 57.1980401,10.020858 55.9434241,10.374554 C54.4410687,10.7981919 53.6398125,12.1310748 53.8862253,13.7651067 C53.9850557,14.418502 54.2941496,14.955569 54.8164917,15.2567179 C55.5494289,15.6799934 56.3181838,16.0344142 57.0869387,16.3779631 C58.040752,16.8048626 59.0317096,17.1375397 59.9679457,17.6043024 C62.058309,18.6472707 63.0247249,20.4806189 62.9995198,22.9709864 C62.9822742,24.661914 62.6625677,26.2437613 61.6447467,27.5784562 C60.6839689,28.838498 59.4034845,29.5074763 57.9601621,29.785432 C55.4824364,30.2623417 53.0809893,29.9510458 50.7889853,28.7834142 C50.5276484,28.6504159 50.2812356,28.4819029 50,28.31339" id="Fill-12"></path>
                            <path d="M237,28.9908253 C235.609293,28.9908253 234.340171,29.0006879 233.071391,28.9774403 C232.921118,28.9746224 232.730545,28.8238652 232.631843,28.686493 C231.075495,26.5156597 229.531783,24.3349639 227.983973,22.1581426 C227.899615,22.0394389 227.805353,21.9284845 227.631515,21.7065755 L227.631515,22.2764941 C227.631515,24.3719487 227.625709,26.4670511 227.637663,28.5621535 C227.63937,28.8844499 227.564917,29.0073804 227.228169,28.9985745 C226.313896,28.9756791 225.398256,28.9739179 224.484324,28.9992789 C224.113424,29.009846 223.997645,28.906993 224,28.5100225 C224.01643,25.7400351 224.008916,22.9700476 224.008574,20.199708 L224.008574,7.12257756 L224.008574,6.58823487 C225.221003,6.39133469 226.400303,6.19971807 227.628783,6 L227.628783,20.1926632 C227.65713,20.2064005 227.685477,20.2194332 227.713824,20.2328182 C227.810818,20.1116489 227.911911,19.9932974 228.004465,19.8682535 C229.521537,17.8245776 231.041,15.7830151 232.54851,13.7322945 C232.706638,13.5170781 232.868181,13.4353592 233.127401,13.4388816 C234.245226,13.4526188 235.362709,13.4445173 236.596654,13.4445173 C234.695703,15.9570199 232.850763,18.3952006 230.990795,20.8534588 C232.983276,23.55159 234.961071,26.229996 237,28.9908253" id="Fill-14"></path>
                            <path d="M95.5640415,15.3128955 C96.3984114,14.7808733 97.1570275,14.2453043 97.9637527,13.79344 C99.3682516,13.0074659 100.869687,12.7698293 102.438618,13.2415557 C103.826961,13.6586611 104.525261,14.685464 104.784117,16.0215491 C104.917674,16.7114046 104.983734,17.4243144 104.988042,18.1272931 C105.007789,21.6095559 104.997377,25.0921734 104.9963,28.5751456 C104.9963,28.6868703 104.983375,28.798595 104.97404,28.9493346 L101.209323,28.9493346 C101.209323,28.7730579 101.209323,28.6074216 101.209323,28.4417854 C101.206092,25.2138292 101.20681,21.9862277 101.194962,18.7586262 C101.193526,18.4078462 101.148289,18.0510366 101.072535,17.7077049 C100.836298,16.6376309 100.184311,16.1648405 99.0871364,16.2786932 C97.9098992,16.4007036 96.9125327,16.9618098 95.9711738,17.620808 C95.8598766,17.6988379 95.8261284,17.94144 95.8257694,18.1077856 C95.8178709,21.5478414 95.819666,24.9875424 95.819666,28.4279528 C95.819666,28.9883496 95.818948,28.9890589 95.2689244,28.9890589 C94.3649039,28.9894136 93.4601653,28.9674234 92.5572219,28.9986353 C92.1314204,29.0135319 91.9982227,28.911029 92,28.4651944 C92.018328,23.76531 92.0111476,19.065071 92.0111476,14.3651866 C92.0111476,13.3348369 92.0111476,13.3348369 93.0767285,13.3348369 C93.6791695,13.3348369 94.2823285,13.3483148 94.8844105,13.329162 C95.18599,13.3195856 95.3170335,13.3976155 95.3425241,13.7196663 C95.3848889,14.2509792 95.4864924,14.7776812 95.5640415,15.3128955" id="Fill-16"></path>
                            <path d="M219.973564,28.9891394 C218.819439,28.9891394 217.713897,28.9898488 216.608355,28.98843 C216.495713,28.9880753 216.383072,28.9745965 216.209611,28.963246 C216.209611,28.7844757 216.209971,28.6206029 216.209611,28.4567301 C216.203133,25.2860398 216.202773,22.1146401 216.18478,18.9435951 C216.18226,18.5083745 216.127199,18.0664146 216.03615,17.6400615 C215.83282,16.6898121 215.249459,16.2503351 214.25224,16.2723267 C213.379899,16.2918354 212.604724,16.630222 211.858699,17.0384852 C210.775109,17.6319034 210.776909,17.6354504 210.776909,18.8545647 C210.776909,22.068174 210.77151,25.2821381 210.784826,28.4957475 C210.786625,28.8735062 210.699175,29.0129045 210.286756,28.999071 C209.33848,28.9678572 208.388405,28.9902035 207.43905,28.98843 C207.298338,28.9880753 207.158346,28.9756606 207,28.9675025 L207,13.3339669 L208.063077,13.3339669 C208.63852,13.3339669 209.215762,13.3619884 209.788686,13.3243899 C210.199306,13.2977872 210.30367,13.4637882 210.329941,13.8270041 C210.365929,14.3172036 210.459497,14.8035015 210.540469,15.380958 C210.729765,15.2408503 210.872276,15.1383411 211.011548,15.0322849 C212.156317,14.1600702 213.362265,13.3981681 214.80789,13.1076663 C215.755446,12.9171908 216.696884,12.9774903 217.608093,13.3041718 C218.96231,13.7897602 219.57698,14.8545787 219.805502,16.1666252 C219.92642,16.8600696 219.98544,17.5719586 219.989039,18.276044 C220.007393,21.7163086 219.997316,25.1565732 219.996596,28.5971925 C219.996596,28.7082146 219.984001,28.8192366 219.973564,28.9891394" id="Fill-18"></path>
                            <path d="M200.340435,21.1506825 C199.229394,21.3757951 198.195944,21.4897453 197.231461,21.8019758 C195.723852,22.2901844 195.111756,24.2280345 196.035288,25.4849713 C196.260873,25.7919747 196.691567,26.033117 197.076641,26.1397493 C197.971077,26.387861 198.791157,26.0940995 199.563461,25.635511 C200.117365,25.3069023 200.484479,24.9138265 200.347978,24.2248983 C200.302718,23.9973463 200.340435,23.7541132 200.340435,23.5178495 L200.340435,21.1506825 Z M193.965513,16.5546916 C193.75717,15.8622786 193.546313,15.1883347 193.361678,14.5081183 C193.343359,14.4398179 193.462258,14.285445 193.551342,14.2481585 C195.034525,13.631364 196.568357,13.1905475 198.183012,13.0487196 C199.2179,12.95742 200.248118,12.9800707 201.257142,13.2410758 C202.797081,13.6397273 203.597403,14.6746877 203.819755,16.1556917 C203.918538,16.8136059 203.986429,17.4826712 203.989662,18.1468579 C204.006545,21.5409706 203.997924,24.9347347 203.996846,28.3291958 C203.996846,28.4368735 203.983556,28.5448997 203.974934,28.6776674 L200.832554,28.6776674 C200.736645,28.1361426 200.640736,27.5967087 200.544826,27.0576233 C200.47945,27.0067464 200.413714,26.9558696 200.348338,26.9053412 C200.281165,27.0464722 200.249914,27.2248896 200.141432,27.3238555 C198.982257,28.3793757 197.64671,29.0421686 196.009784,28.9979127 C194.179602,28.9473843 192.850521,27.9803759 192.308471,26.2850619 C191.957522,25.1880735 191.906873,24.0642529 192.152214,22.9463562 C192.476582,21.468837 193.471597,20.5582809 194.905568,20.0512548 C196.245067,19.577682 197.64671,19.4853371 199.049789,19.3992646 C199.462882,19.3738262 199.875616,19.3543118 200.393598,19.3260856 C200.330018,18.5594482 200.330377,17.8213855 200.192799,17.1084128 C200.053066,16.3863798 199.424805,16.0173485 198.500914,15.9504419 C197.151357,15.8525214 195.843469,16.0807703 194.547794,16.4093789 C194.368907,16.4543318 194.18966,16.4985876 193.965513,16.5546916 L193.965513,16.5546916 Z" id="Fill-20"></path>
                            <path d="M84.6265036,21.2098036 C83.7871865,21.3568665 82.9869382,21.4457314 82.2115217,21.6433253 C80.6381745,22.044089 80.1226649,23.1115141 80.3852206,24.7856606 C80.5107043,25.5871879 80.990456,26.0517252 81.7592506,26.1851969 C82.7816614,26.3622299 83.6133634,25.9363749 84.3758673,25.2752892 C84.5755155,25.1017411 84.6655724,24.9163444 84.6612682,24.6365069 C84.6457069,23.6645679 84.6559708,22.6915836 84.6539842,21.7189477 C84.6539842,21.5851275 84.6400784,21.4509588 84.6265036,21.2098036 M84.6937152,19.3244722 C84.6470313,18.6058856 84.653322,17.9353906 84.5486971,17.2847596 C84.4122874,16.4354892 83.8719459,16.0305437 82.9564777,15.9566638 C81.7122356,15.8566471 80.5064001,16.0845597 79.3111595,16.4131858 C79.146607,16.4581411 78.9817234,16.5020508 78.767176,16.5602487 C78.564548,15.8301619 78.3665552,15.1185451 78.1410819,14.3062147 C78.973115,14.0145284 79.7836272,13.6918266 80.614667,13.447535 C82.0141911,13.0356197 83.4428512,12.8645111 84.8903836,13.1209998 C86.7991265,13.4590352 87.7400888,14.5292483 87.9079522,16.5574607 C87.9675487,17.2767443 87.9927117,18.0009068 87.9943671,18.7229783 C88.0036377,21.867753 87.9986713,25.0128762 87.9986713,28.1573024 C87.9986713,28.3224867 87.9983402,28.486974 87.9983402,28.680386 L85.0956604,28.680386 C85.0072589,28.1346505 84.9191886,27.5913545 84.8191989,26.9748755 C84.6543153,27.1407567 84.5357845,27.2641222 84.4129496,27.3826089 C83.4832444,28.2827588 82.4250757,28.9030712 81.1377917,28.9887998 C78.9019303,29.1379535 77.3299075,27.7889483 77.0637099,25.4470948 C76.9829236,24.736872 76.9786194,24.0012094 77.0527839,23.2902896 C77.2037616,21.8457981 77.9775226,20.8414496 79.2257379,20.2354253 C80.2262966,19.7496301 81.2977089,19.5840973 82.3807095,19.4875655 C83.116726,19.4217009 83.8547292,19.38267 84.6937152,19.3244722" id="Fill-22"></path>
                            <path d="M131.654556,21.1672394 C130.712511,21.3534489 129.830047,21.4540368 128.990946,21.7102054 C127.498437,22.1658095 126.874158,23.7546809 127.534185,25.2426164 C127.756622,25.7448599 128.134631,26.0417509 128.648685,26.1461674 C129.813166,26.3831929 130.734689,25.8785131 131.554923,25.0804228 C131.60656,25.0299548 131.649922,24.9391124 131.650253,24.867065 C131.656211,23.6895946 131.654556,22.5121243 131.654556,21.1672394 M131.699573,19.3117578 C131.647936,18.5804941 131.652239,17.8829917 131.537711,17.2077648 C131.402329,16.4075862 130.835977,16.0167203 129.931997,15.9474574 C128.591752,15.8447811 127.301157,16.1242693 126.020161,16.4855505 C125.95727,16.5033013 125.894047,16.5189638 125.770582,16.551681 C125.568006,15.8207653 125.368409,15.0988991 125.162523,14.3540612 C126.416045,13.758887 127.681814,13.3422651 129.008489,13.1341281 C130.182238,12.950355 131.354664,12.9256431 132.509877,13.2503785 C134.029529,13.6774421 134.707099,14.8357694 134.888491,16.3828743 C134.957671,16.9742199 134.992096,17.5735707 134.994082,18.169441 C135.003681,21.5187751 134.998716,24.8681092 134.998716,28.2177913 L134.998716,28.6866215 L132.984541,28.6866215 C132.104063,28.6866215 132.105387,28.6862734 131.961068,27.7872471 C131.920685,27.5342111 131.870041,27.2829153 131.830652,27.065729 C131.229213,27.5136758 130.677755,27.9939919 130.066386,28.3643225 C129.016433,29.0005672 127.868502,29.1585842 126.692435,28.8411579 C125.230048,28.4464635 124.214189,27.1203736 124.054312,25.3529499 C123.986125,24.6004548 123.96792,23.818027 124.084103,23.0763216 C124.357845,21.3280409 125.478965,20.3158967 127.040985,19.9239867 C128.214735,19.6295321 129.439129,19.5519158 130.642007,19.388678 C130.965731,19.344823 131.294421,19.3399503 131.699573,19.3117578" id="Fill-24"></path>
                            <path d="M65,13.4708062 C65.658609,13.3407101 66.2873611,13.193862 66.9238408,13.0990523 C67.3214651,13.0395289 67.4725061,12.8741465 67.5111445,12.453562 C67.6281134,11.1811157 67.8012837,9.91401584 67.9589986,8.59060042 C69.0053966,8.39777312 70.056361,8.20387655 71.1610678,8 L71.1610678,12.977154 L75.56725,12.977154 C75.4411483,13.8899649 75.3238281,14.740401 75.2005365,15.6321827 L71.1937348,15.6321827 C71.1821433,15.837485 71.1649317,16.0007288 71.1649317,16.1639726 C71.1631754,18.768745 71.1624729,21.3731609 71.1642291,23.9779333 C71.1652829,25.7900109 71.8509388,26.3738392 73.6128497,26.0434309 C74.1464108,25.9432747 74.6704879,25.7928623 75.2430387,25.6549249 C75.4931345,26.387027 75.742879,27.1187727 76,27.8704784 C74.9335803,28.4646431 73.821497,28.846377 72.6384596,28.9486717 C71.9159216,29.0114029 71.1747669,29.0274422 70.4582003,28.934771 C68.8332801,28.7244788 67.8536212,27.710086 67.598959,26.0409359 C67.5027143,25.4111284 67.4486205,24.7684896 67.4447567,24.1311972 C67.4278963,21.4979106 67.4377315,18.8649804 67.4377315,16.2320502 L67.4377315,15.6703205 L65,15.6703205 L65,13.4708062 Z" id="Fill-26"></path>
                            <path d="M140,13.3354253 L142.865629,13.3354253 C142.952814,14.1693595 143.038403,14.9894067 143.13485,15.9137847 C144.440719,14.1700717 145.944271,13.0267058 148,13 L148,16.4642809 C147.427705,16.5646949 146.847106,16.6330618 146.281198,16.7733565 C145.236567,17.032225 144.323832,17.5866382 143.58515,18.4543998 C143.454531,18.6075132 143.359681,18.8663818 143.358723,19.0771799 C143.344671,22.2042551 143.348822,25.3316865 143.348822,28.4594739 L143.348822,29 L140,29 L140,13.3354253 Z" id="Fill-28"></path>
                        </g>
                    </g>
                </g>
            </g>
        </g>
    </g>
</svg>