<?xml version="1.0" encoding="UTF-8"?>
<svg width="19px" height="16px" viewBox="0 0 19 16" version="1.1" xmlns="http://www.w3.org/2000/svg" xmlns:xlink="http://www.w3.org/1999/xlink">
    <!-- Generator: Sketch 60.1 (88133) - https://sketch.com -->
    <title>github</title>
    <desc>Created with Sketch.</desc>
    <g id="Mobile" stroke="none" stroke-width="1" fill="none" fill-rule="evenodd">
        <g transform="translate(-208.000000, -392.000000)" fill="#151515" fill-rule="nonzero" id="Group-2">
            <g transform="translate(180.000000, 390.000000)">
                <path d="M40.38,11.109 C39.662,11.109 39.08,11.916 39.08,12.908 C39.08,13.902 39.662,14.709 40.38,14.709 C41.098,14.709 41.68,13.902 41.68,12.908 C41.679,11.916 41.098,11.109 40.38,11.109 Z M44.906,6.426 C45.055,6.061 45.061,3.987 44.271,2 C44.271,2 42.46,2.199 39.72,4.08 C39.145,3.92 38.172,3.842 37.201,3.842 C36.228,3.842 35.256,3.92 34.681,4.08 C31.94,2.199 30.129,2 30.129,2 C29.34,3.987 29.348,6.061 29.495,6.426 C28.567,7.434 28,8.645 28,10.297 C28,17.483 33.963,17.598 35.467,17.598 C35.809,17.598 36.485,17.6 37.201,17.6 C37.916,17.6 38.593,17.598 38.933,17.598 C40.439,17.598 46.4,17.483 46.4,10.297 C46.4,8.645 45.834,7.434 44.906,6.426 Z M37.228,16.715 L37.172,16.715 C33.401,16.715 30.463,16.266 30.463,12.6 C30.463,11.721 30.773,10.907 31.51,10.231 C32.737,9.104 34.815,9.7 37.172,9.7 C37.182,9.7 37.192,9.7 37.201,9.7 C37.211,9.7 37.219,9.7 37.228,9.7 C39.585,9.7 41.664,9.104 42.892,10.231 C43.627,10.907 43.937,11.721 43.937,12.6 C43.937,16.266 41,16.715 37.228,16.715 Z M34.021,11.109 C33.303,11.109 32.721,11.916 32.721,12.908 C32.721,13.902 33.303,14.709 34.021,14.709 C34.74,14.709 35.322,13.902 35.322,12.908 C35.322,11.916 34.74,11.109 34.021,11.109 Z" id="github"></path>
            </g>
        </g>
    </g>
</svg>