<?xml version="1.0" encoding="UTF-8"?>
<svg width="18px" height="18px" viewBox="0 0 18 18" version="1.1" xmlns="http://www.w3.org/2000/svg" xmlns:xlink="http://www.w3.org/1999/xlink">
    <!-- Generator: Sketch 60.1 (88133) - https://sketch.com -->
    <title>instagram</title>
    <desc>Created with Sketch.</desc>
    <g id="Mobile" stroke="none" stroke-width="1" fill="none" fill-rule="evenodd">
        <g transform="translate(-294.000000, -390.000000)" fill="#151515" fill-rule="nonzero" id="Group-2">
            <g transform="translate(180.000000, 390.000000)">
                <path d="M131.94586,5.28931 C131.930906,4.54268882 131.789458,3.80400855 131.52753,3.10468 C131.301539,2.50414041 130.947275,1.96012249 130.48944,1.51056 C130.039878,1.05272475 129.49586,0.698460602 128.89532,0.47247 C128.195991,0.210541813 127.457311,0.0690935498 126.71069,0.05414 C125.75073,0.01038 125.44427,0 123,0 C120.55573,0 120.24927,0.01038 119.28931,0.05414 C118.542689,0.0690935498 117.804009,0.210541813 117.10468,0.47247 C116.50414,0.698460602 115.960122,1.05272475 115.51056,1.51056 C115.052725,1.96012249 114.698461,2.50414041 114.47247,3.10468 C114.210542,3.80400855 114.069094,4.54268882 114.05414,5.28931 C114.01038,6.24927 114,6.55573 114,9 C114,11.44427 114.01038,11.75073 114.05414,12.71069 C114.069094,13.4573112 114.210542,14.1959915 114.47247,14.89532 C114.698461,15.4958596 115.052725,16.0398775 115.51056,16.48944 C115.960106,16.9472953 116.504129,17.3015625 117.10468,17.52753 C117.804009,17.7894582 118.542689,17.9309065 119.28931,17.94586 C120.24927,17.98969 120.55573,18 123,18 C125.44427,18 125.75073,17.98969 126.71069,17.94586 C127.457311,17.9309065 128.195991,17.7894582 128.89532,17.52753 C130.104254,17.0599688 131.059959,16.1042644 131.52752,14.89533 C131.789448,14.1960015 131.930896,13.4573212 131.94585,12.7107 C131.98962,11.75073 132,11.44427 132,9 C132,6.55573 131.98962,6.24927 131.94586,5.28931 Z M130.32593,12.63678 C130.319175,13.2074749 130.214334,13.7727584 130.01599,14.30792 C129.713247,15.0928479 129.092846,15.7132522 128.30792,16.016 C127.772757,16.2143373 127.207474,16.319178 126.63678,16.32594 C125.68787,16.3692 125.40326,16.37836 123,16.37836 C120.59674,16.37836 120.31213,16.3692 119.36322,16.32593 C118.792526,16.3191712 118.227244,16.2143339 117.69208,16.016 C117.30115,15.8717562 116.94753,15.6417088 116.65723,15.34278 C116.358296,15.0524785 116.128245,14.6988542 115.984,14.30792 C115.785656,13.7727584 115.680815,13.2074749 115.67406,12.63678 C115.6308,11.68774 115.62164,11.40314 115.62164,9 C115.62164,6.59686 115.6308,6.31226 115.67407,5.36322 C115.680829,4.79252636 115.785666,4.22724407 115.984,3.69208 C116.128244,3.30115027 116.358291,2.94752965 116.65722,2.65723 C116.947522,2.3582963 117.301146,2.12824542 117.69208,1.984 C118.227243,1.78566272 118.792526,1.68082196 119.36322,1.67406 C120.31226,1.6308 120.59686,1.62164 123,1.62164 C125.40314,1.62164 125.68774,1.6308 126.63678,1.67407 C127.207474,1.68083196 127.772757,1.78567272 128.30792,1.98401 C128.69885,2.12825383 129.05247,2.35830116 129.34277,2.65723 C129.641702,2.94752863 129.871753,3.30114933 130.016,3.69208 C130.214337,4.22724347 130.319178,4.79252578 130.32594,5.36322 C130.36921,6.31222 130.37837,6.59692 130.37837,9 C130.37837,11.40308 130.3692,11.68774 130.32593,12.63678 L130.32593,12.63678 Z M123,4.37836 C120.447539,4.37836 118.37836,6.44753871 118.37836,9 C118.37836,11.5524613 120.447539,13.62164 123,13.62164 C125.552461,13.62164 127.62164,11.5524613 127.62164,9 C127.62164,6.44755015 125.55245,4.37836 123,4.37836 Z M123,12 C121.343146,12 120,10.6568542 120,9 C120,7.34314575 121.343146,6 123,6 C124.656854,6 126,7.34314575 126,9 C126,9.79564947 125.683929,10.5587112 125.12132,11.1213203 C124.558711,11.6839295 123.795649,12 123,12 Z M128.88422,4.1958 C128.88422,4.79226753 128.400688,5.2758 127.80422,5.2758 C127.207752,5.2758 126.72422,4.79226753 126.72422,4.1958 C126.72422,3.59933247 127.207752,3.1158 127.80422,3.1158 C128.400688,3.1158 128.88422,3.59933247 128.88422,4.1958 L128.88422,4.1958 Z" id="instagram"></path>
            </g>
        </g>
    </g>
</svg>