<?xml version="1.0" encoding="UTF-8"?>
<svg width="18px" height="18px" viewBox="0 0 18 18" version="1.1" xmlns="http://www.w3.org/2000/svg" xmlns:xlink="http://www.w3.org/1999/xlink">
    <!-- Generator: Sketch 60.1 (88133) - https://sketch.com -->
    <title>linkedin</title>
    <desc>Created with Sketch.</desc>
    <g id="Mobile" stroke="none" stroke-width="1" fill="none" fill-rule="evenodd">
        <g transform="translate(-236.000000, -390.000000)" fill="#151515" fill-rule="nonzero" id="Group-2">
            <g transform="translate(180.000000, 390.000000)">
                <path d="M56,5 L60,5 L60,18 L56,18 L56,5 Z M58,0 C56.8,0 56,1 56,2.1 C56,3.1 56.8,4 58,4 C59.3,4 60,3.1 60,2 C60,0.9 59.2,0 58,0 Z M69.6,5.2 C67.5,5.2 66.3,6.4 65.8,7.2 L65.7,7.2 L65.5,5.5 L61.9,5.5 C61.9,6.6 62,7.9 62,9.4 L62,18 L66,18 L66,10.9 C66,10.5 66,10.2 66.1,9.9 C66.4,9.2 66.9,8.3 68,8.3 C69.4,8.3 70,9.5 70,11.1 L70,18 L74,18 L74,10.6 C74,6.9 72.1,5.2 69.6,5.2 Z" id="linkedin"></path>
            </g>
        </g>
    </g>
</svg>