<?xml version="1.0" encoding="UTF-8"?>
<svg width="60px" height="34px" viewBox="0 0 60 34" version="1.1" xmlns="http://www.w3.org/2000/svg" xmlns:xlink="http://www.w3.org/1999/xlink">
    <!-- Generator: Sketch 60.1 (88133) - https://sketch.com -->
    <title>logo</title>
    <desc>Created with Sketch.</desc>
    <g id="Mobile" stroke="none" stroke-width="1" fill="none" fill-rule="evenodd">
        <g transform="translate(-8.000000, -21.000000)" fill="#63C0AD" id="logo">
            <path d="M35.6663111,34.5312305 C35.4644366,34.8193456 35.321857,35.0223768 35.1371826,35.2852818 C35.4544786,35.253319 35.6758164,35.23081 35.9777228,35.2001978 C35.8758803,34.9809602 35.7962168,34.8098918 35.6663111,34.5312305 M36.4665669,32.7552709 C36.8934002,32.2407153 37.2804017,31.7743289 37.7176456,31.2476185 C37.0210428,31.3142451 36.2891346,32.20245 36.4665669,32.7552709 M39.3941997,45.043831 C39.85317,45.3202415 40.2809085,45.5660397 40.6959733,45.8316458 C41.3522918,46.2521138 41.9991049,46.6874377 42.6522549,47.1128577 C42.7400658,47.1700306 42.8414556,47.2073955 42.9365087,47.2546644 C42.9247402,47.1358169 42.9523508,46.9917593 42.8939611,46.9030739 C42.4390646,46.2142987 41.9737574,45.5322762 41.4944187,44.8601576 C41.4319552,44.7723725 41.2676493,44.6994434 41.1590173,44.7093474 C40.6443731,44.7593173 40.1315395,44.8358479 39.6196111,44.9132788 C39.5467372,44.9240832 39.4820106,44.9907098 39.3941997,45.043831 M36.8834423,44.6130089 C36.877558,44.5535851 36.8866107,44.4698517 36.8653369,44.4612982 C35.5893634,43.952595 34.315653,43.437139 33.0292689,42.9549964 C32.7078992,42.833898 32.3457925,42.8208428 31.938875,42.7465631 C31.8777695,43.544732 31.8116851,44.2803259 31.7763796,45.0177206 C31.7718533,45.1104576 31.9329908,45.2963819 32.0126543,45.2936808 C32.4933509,45.2779245 32.9758581,45.2423603 33.4515758,45.1716821 C34.5446855,45.0082668 35.6346267,44.8214422 36.7259258,44.6440713 C36.7748102,44.635968 36.823242,44.6247135 36.8834423,44.6130089 M40.8928689,44.1160103 C40.8516792,44.0129191 40.837195,43.9503441 40.8046054,43.8994738 C40.365551,43.2206025 39.9192544,42.546233 39.4860843,41.8637604 C39.32721,41.6139105 39.1963989,41.3465037 39.0560826,41.0853993 C38.896303,40.7887308 38.7238496,40.5685928 38.3142164,40.6973443 C37.6809823,40.8963238 37.0359797,41.0588387 36.392335,41.2213537 C35.4155522,41.4685024 34.4351482,41.7003451 33.4579127,41.9447927 C33.1627957,42.0181721 32.8726577,42.1122596 32.5218669,42.2130999 C32.6400042,42.3211431 32.6852675,42.3954228 32.7477309,42.4143303 C33.6145239,42.6749845 34.4935379,42.9005246 35.3494677,43.1922412 C35.9265753,43.38942 36.4661143,43.6910405 37.0332639,43.9192817 C37.4600972,44.0921507 37.8977937,44.3217425 38.3422797,44.3510042 C39.0461246,44.3982731 39.7599275,44.3059862 40.469204,44.2569166 C40.6081625,44.2474628 40.7430472,44.167781 40.8928689,44.1160103 M38.4328064,40.1476747 C38.3065217,39.9284371 38.2187108,39.7888813 38.1435736,39.6425728 C37.5198448,38.4329395 36.9020002,37.2197047 36.2696714,36.014123 C36.220787,35.9209358 36.0718706,35.821446 35.971386,35.8232227 C35.630553,35.8299995 35.2797621,35.8408038 34.9547714,35.9299394 C34.7714548,35.9799094 34.592212,36.1613318 34.4817695,36.3292489 C34.3038845,36.5993569 34.2210526,36.9333903 34.0336624,37.1949448 C33.4475021,38.0124715 33.1496694,38.9506464 32.8251312,39.880718 C32.7662889,40.0477347 32.6961307,40.2106998 32.6431726,40.3790671 C32.5177932,40.7783767 32.3996558,41.1794869 32.2783501,41.5792467 C32.3104871,41.61256 32.342624,41.6463235 32.3752136,41.6791866 C34.3554847,41.1785866 36.3362085,40.6775364 38.4328064,40.1476747 M42.2073163,44.5918504 C42.2218005,44.6899896 42.2100321,44.7854278 42.2489585,44.8493533 C42.8165608,45.7672701 43.3914052,46.680685 43.9644391,47.5954506 C44.2197243,48.0028633 44.3772408,48.4854562 44.8439058,48.7308042 C45.0322013,48.8298438 45.2408653,48.9018726 45.4087923,49.0279229 C46.1266688,49.5654377 46.8219137,50.1326644 47.5474851,50.6602752 C48.0689187,51.0393266 48.6242999,51.3720096 49.1647442,51.7249506 C49.2036707,51.6970394 49.2425971,51.6691283 49.281071,51.6412171 C49.045249,51.0919977 48.8026375,50.5459295 48.5758681,49.9935588 C48.4346465,49.6496213 48.3088144,49.2993814 48.192035,48.9464404 C48.0046448,48.3796639 47.8276651,47.809286 47.6534013,47.2384579 C47.5194218,46.7995325 47.3813686,46.3610573 47.2713787,45.9162796 C47.1224623,45.3152895 46.9984408,44.708447 46.8504296,44.045332 C45.2997076,44.2276549 43.7847436,44.4063763 42.2073163,44.5918504 M46.3484592,38.8187437 C45.9447102,38.8835696 45.580793,38.9200341 45.2281915,39.0019669 C44.4949254,39.172585 43.7679962,39.3693137 43.0374459,39.550286 C42.5888862,39.6614804 42.1371581,39.76052 41.689051,39.8721646 C41.0789012,40.0243254 40.474183,40.1949435 39.86177,40.3358498 C39.3430521,40.4542472 39.3398837,40.4402916 39.5824952,40.8675123 C39.5947163,40.8895711 39.6001479,40.9156815 39.6128216,40.93684 C39.8735385,41.3843188 40.1184131,41.8412514 40.3999511,42.2747746 C40.7548157,42.8208428 41.1282382,43.3556565 41.5202188,43.8747139 C41.5958085,43.975104 41.7999462,44.0358783 41.9361889,44.0237234 C42.5010753,43.9710524 43.0605302,43.8643597 43.6254167,43.8130392 C44.4089251,43.742361 45.1951493,43.7031953 45.9800156,43.6509745 C46.5643653,43.612259 46.6951764,43.4893599 46.6526288,42.9324874 C46.5865444,42.0685922 46.4901334,41.2069479 46.4204279,40.3430527 C46.3824067,39.8667624 46.3742593,39.3873208 46.3484592,38.8187437 M13.4098743,48.0622871 C13.4116849,48.104604 13.4134954,48.1469209 13.4157586,48.189688 C13.5705592,48.2049941 13.7267177,48.2450601 13.8788025,48.2320049 C14.8225432,48.149622 15.7662838,48.0613867 16.7086665,47.961897 C17.0205309,47.929484 17.3305848,47.8682596 17.6379229,47.8025333 C18.1163564,47.7012428 18.5870951,47.5571853 19.0691497,47.4797543 C20.5411135,47.2429597 22.0203194,47.0493824 23.4900201,46.8008831 C24.3341814,46.6581761 25.1620478,46.4231822 26.003946,46.2669697 C26.7738754,46.1247129 27.5533101,46.0337766 28.3282184,45.9185305 C29.2171904,45.7866278 30.1043519,45.644371 30.9951344,45.5273242 C31.2544933,45.4931105 31.3251042,45.394071 31.3219357,45.1401695 C31.3165041,44.6994434 31.3567885,44.2573668 31.3785149,43.8161905 C31.399336,43.3939218 31.4201572,42.9707527 31.445052,42.4566473 C30.9937765,42.5664911 30.6199013,42.6583278 30.2455735,42.7479136 C29.5575707,42.9135798 28.8668522,43.0679915 28.1820179,43.2462628 C27.599026,43.3984236 27.0250869,43.5838977 26.4439056,43.7428112 C25.9324299,43.8823669 25.4091857,43.982757 24.9044994,44.1412204 C23.8023371,44.4874087 22.7123959,44.8714121 21.6106862,45.2180506 C20.493587,45.5700913 19.3678877,45.8928703 18.2480727,46.2354571 C17.8751028,46.3498028 17.5057539,46.4772037 17.1400262,46.6127079 C16.4601708,46.8648086 15.7830312,47.1245624 15.1072496,47.3870173 C14.5396473,47.6076054 13.9752135,47.8371972 13.4098743,48.0622871 M39.367947,39.8793675 C39.5028317,39.8699137 39.60739,39.8766664 39.7051588,39.8546076 C40.4800672,39.6812883 41.2531651,39.4998658 42.0280734,39.3265466 C42.3367694,39.257669 42.6522549,39.2185034 42.9577824,39.1383714 C43.9662496,38.8736656 44.96838,38.5841999 45.9809209,38.3334498 C46.2515956,38.266373 46.3380486,38.1848904 46.3403118,37.8904728 C46.3466487,36.9306893 46.3575119,35.966404 46.4625228,35.0142735 C46.5046177,34.6356722 46.4195226,34.5879532 46.1198793,34.627569 C45.6432564,34.690144 45.1693492,34.7770287 44.6913683,34.8296998 C43.6358273,34.9458462 42.578023,35.0417345 41.5220293,35.1551798 C40.5538465,35.2591714 39.5879268,35.3802698 38.619744,35.4847115 C38.1394999,35.5364822 37.657898,35.5801496 37.1758434,35.603559 C36.8255052,35.6202156 36.7983472,35.7872324 36.9259898,36.0474363 C37.0690219,36.3405034 37.2161278,36.63222 37.3695705,36.9198849 C37.8398566,37.8022375 38.3182901,38.6800883 38.7835972,39.5646917 C38.9207452,39.8253459 39.1099459,39.9396916 39.367947,39.8793675 M66.2407917,33.1253187 C65.1961138,33.1253187 64.2573521,33.0978578 63.3208536,33.133422 C62.3734919,33.1689862 61.428846,33.2657749 60.4837475,33.3364531 C59.1960055,33.4332418 57.9078109,33.5246283 56.6209741,33.62907 C55.4608747,33.7231576 54.301228,33.8289499 53.1420338,33.9351923 C52.124514,34.0283796 51.1078994,34.1355224 50.0894742,34.224658 C49.2294708,34.3002882 48.368562,34.3637636 47.5076533,34.4240877 C47.2428628,34.4425451 47.0563778,34.5622929 47.0414409,34.8211463 C46.9853144,35.8052396 46.95363,36.7902331 46.9065562,37.7747765 C46.8925245,38.0606407 47.0414409,38.0894523 47.267305,38.0358809 C47.8168019,37.9053287 48.3658462,37.7707249 48.9176063,37.6500767 C49.544051,37.513222 50.1772851,37.4051788 50.8010139,37.2566195 C51.7755336,37.025227 52.7414533,36.7560195 53.7173309,36.5291288 C54.4275127,36.3648131 55.1471998,36.2428144 55.8623605,36.1019081 C55.9243713,36.0897532 55.9872874,36.0775984 56.0483929,36.0609417 C56.6395321,35.9006777 57.2275029,35.7260079 57.8231684,35.5824005 C58.4233603,35.438343 59.0375838,35.3492073 59.6346073,35.1934451 C60.5692952,34.9489974 61.4976463,34.6784393 62.4232816,34.4011285 C63.6005811,34.0486377 64.7733542,33.67904 65.94658,33.3125936 C66.023075,33.288734 66.0868963,33.2248085 66.2407917,33.1253187 M34.0721362,36.076698 C33.8204721,36.0929045 33.6579767,36.0951554 33.4977445,36.1154135 C32.8341839,36.2000473 32.1715286,36.2941349 31.5075154,36.3765178 C30.6660699,36.4809596 29.8237192,36.5768479 28.9818211,36.6767878 C28.1272492,36.7785285 27.2722247,36.8739666 26.4190108,36.9833603 C24.9515733,37.1715355 23.486399,37.3763673 22.0185089,37.5595905 C20.8240094,37.7086001 19.626794,37.8364512 18.430484,37.971055 C18.1910409,37.9980657 17.9479768,37.9994163 17.7107969,38.0385819 C16.8000985,38.1866911 15.8934738,38.3600104 14.9814175,38.496865 C13.8027601,38.6733356 12.6200291,38.8209946 11.4404664,38.9880113 C11.328666,39.0037676 11.2241077,39.0667928 11.1168336,39.1077591 C11.196497,39.1833894 11.2576025,39.1973449 11.3191607,39.2004962 C11.9537527,39.2333593 12.5915132,39.2347099 13.2220315,39.302687 C14.2517725,39.4138815 15.2760818,39.5822487 16.3058228,39.6988453 C17.0752996,39.7852799 17.8515659,39.8113903 18.6214953,39.8946736 C19.8033211,40.0225247 20.9819784,40.1764862 22.1619937,40.3191932 C23.0391972,40.4258858 23.917306,40.5235749 24.792699,40.6419722 C25.6196602,40.754067 26.443453,40.8909216 27.2690563,41.01202 C27.5696049,41.0561377 27.8783008,41.0615398 28.1734178,41.1277163 C29.2289589,41.3654112 30.2813315,41.6170618 31.3323463,41.872764 C31.5767683,41.9317375 31.6727266,41.8399008 31.7379058,41.6152611 C31.8804853,41.1259155 32.0452439,40.6428725 32.2059287,40.1589292 C32.3240661,39.8046376 32.434056,39.4462944 32.578446,39.102357 C32.8269418,38.5090199 33.0858481,37.9192843 33.3669334,37.3408031 C33.5638289,36.9347409 33.8055352,36.5502873 34.0721362,36.076698 M39.6024111,30.1068627 C39.6526534,30.1235193 39.6766429,30.1383753 39.7001799,30.1379251 C39.8649384,30.1334233 40.0301496,30.1221688 40.1953608,30.1203681 C41.3251338,30.1068627 42.4431383,30.1154161 43.499132,30.6353738 C44.0517973,30.9072825 44.732558,31.879671 44.5659889,32.520277 C44.5116729,32.7278099 44.4111883,32.8966274 44.1848716,32.8340524 C44.1011344,32.810643 44.0214709,32.6148148 44.0169446,32.4941666 C43.9915971,31.8832725 43.757133,31.3583627 43.2049203,31.1094133 C42.7301078,30.8955778 42.1901162,30.7929368 41.6677772,30.7249596 C41.154491,30.658333 40.6262678,30.7177568 40.106192,30.6862442 C39.2326096,30.6340233 38.5441542,30.8618143 38.0281521,31.6473782 C37.5587713,32.3631642 36.9517899,32.9884641 36.4122509,33.6592321 C36.2031343,33.9189859 36.242966,34.6995978 36.5575462,35.0363323 C36.660294,35.1461762 37.0038427,35.0331811 37.2369489,35.0210262 C37.2749701,35.0192255 37.3125387,35.0115724 37.3501073,35.0066205 C38.115963,34.910282 38.8800082,34.8008883 39.6467691,34.7203061 C40.908711,34.5879532 42.1724635,34.4808104 43.4339528,34.3516087 C44.3776934,34.2552702 45.3191709,34.1373231 46.2624588,34.036933 C46.4828913,34.0135236 46.6087234,33.9252884 46.6408604,33.6956967 C46.7101133,33.1932959 46.8105979,32.6949468 46.8671771,32.1916457 C46.9844091,31.141376 47.058641,30.0857042 47.194431,29.0381356 C47.3152841,28.103112 47.4818532,27.1725902 47.6529486,26.2447695 C47.7833071,25.5361864 47.9498761,24.8334556 48.1051294,24.1293742 C48.2069719,23.6665893 48.3219408,23.2065055 48.4210675,22.7432704 C48.4753835,22.4898191 48.5084258,22.2323162 48.5527838,21.9635589 C47.7407595,22.0279346 39.7065167,29.3663168 39.6024111,30.1068627 M31.8284325,45.9883084 C31.8741485,46.3083863 31.8967801,46.5591365 31.9474751,46.8040343 C32.0891493,47.4883077 32.179676,48.1923891 32.4091611,48.8474008 C32.6255199,49.4632469 32.9785739,50.0345251 33.2976805,50.6116557 C33.762535,51.4516914 34.4116113,52.1625254 35.1611722,52.7351542 C36.2049448,53.5315224 37.3976338,54.1046014 38.7107233,54.3040311 C40.1749923,54.52642 41.6424298,54.5484788 42.9826773,53.7552618 C43.7829331,53.2816726 44.2409981,52.5528314 44.4333673,51.6592243 C44.5827363,50.9623459 44.486778,50.284375 44.2174612,49.6280127 C44.0504394,49.2205999 43.9911445,48.7569146 43.5959955,48.4687995 C43.3945737,48.3215907 43.2035624,48.1604263 43.0007826,48.0154684 C42.1489265,47.4072754 41.3083863,46.7815253 40.4366144,46.2039446 C39.9088439,45.8541548 39.34441,45.5489328 38.7677551,45.2869281 C38.4513643,45.1428706 38.0648154,45.0406798 37.7262456,45.076244 C36.7336206,45.178885 35.7500482,45.3625584 34.7624022,45.5111177 C33.939062,45.6353674 33.114364,45.7528643 32.2910238,45.8784645 C32.1321495,45.9027742 31.9773489,45.952294 31.8284325,45.9883084 M44.8425479,49.2971305 C44.8724217,49.581194 44.8932428,49.7743212 44.9131587,49.9678985 C44.972001,50.539627 45.1385701,51.1262113 45.058454,51.6781319 C44.9751695,52.2498603 44.7484001,52.8328433 44.3265458,53.2888755 C44.0730711,53.563035 43.8544492,53.8979688 43.5471111,54.0879448 C43.0297511,54.4071223 42.4757279,54.7830225 41.8986203,54.864505 C40.8897004,55.0067619 39.8391383,55.0490788 38.8293132,54.9329324 C38.0548575,54.844247 37.262749,54.6097032 36.5675041,54.1649255 C36.1370498,53.8903158 35.6482057,53.7061922 35.209604,53.4423868 C34.9457187,53.2839235 34.7044651,53.072339 34.4944432,52.8467988 C34.0214413,52.3398963 33.5022708,51.853702 33.1351851,51.2761212 C32.6825517,50.5639367 32.3335714,49.7806237 31.9986226,49.0027129 C31.6306317,48.1460205 31.4120098,47.2434099 31.3504516,46.3061354 C31.3459253,46.2372579 31.1761878,46.1197609 31.0897348,46.1256133 C30.6348382,46.1562255 30.1803943,46.2066456 29.7295714,46.2741726 C29.331254,46.3340465 28.9397262,46.4366876 28.5414088,46.5001629 C27.7058475,46.6325158 26.864402,46.7297547 26.0324619,46.8828158 C25.340838,47.0093164 24.6596248,47.1947905 23.9734325,47.353704 C23.9363166,47.3627076 23.8992007,47.3717112 23.8620847,47.3775635 C22.9998181,47.5103666 22.1370989,47.6382176 21.2761901,47.7759727 C20.144154,47.9564948 19.0139284,48.1505223 17.8818923,48.3287936 C17.0685101,48.4570948 16.2533173,48.5781932 15.4367667,48.6844357 C14.9121646,48.752863 14.3825835,48.8388474 13.8575288,48.8248918 C13.3066739,48.8100359 12.7576296,48.6916386 12.2108485,48.6020528 C12.1348061,48.5898979 12.0062582,48.452593 12.0189319,48.4215306 C12.0836585,48.2675691 12.1538167,48.0654384 12.2841751,47.9974612 C12.7037662,47.776873 13.1459891,47.5954506 13.5882119,47.4212309 C14.6061844,47.021021 15.6232517,46.6167595 16.65254,46.247612 C17.422922,45.9716517 18.2141252,45.7528643 18.9935599,45.4998632 C19.7806894,45.2441611 20.5637452,44.9754037 21.3508746,44.7179008 C21.7175077,44.5977028 22.090025,44.4959621 22.4571107,44.3775648 C23.3374826,44.0944016 24.2128756,43.7959324 25.0968686,43.5253743 C25.5422599,43.38942 26.0025881,43.2998342 26.4565793,43.1899903 C27.4971835,42.9396903 28.5395982,42.6956928 29.5765813,42.430987 C29.6969818,42.3999246 29.7888664,42.2576677 29.8938774,42.1671816 C29.7915822,42.1122596 29.6956239,42.0316774 29.5865393,42.0064674 C29.0447371,41.8808672 28.5033876,41.7458132 27.9552485,41.6584783 C26.9454234,41.4977641 25.9315246,41.3613596 24.9176258,41.2258555 C23.5275886,41.0399312 22.1375515,40.8459037 20.7438933,40.6905916 C19.3832773,40.5384308 18.0163244,40.4456937 16.6552558,40.2984849 C15.5743672,40.1814382 14.5016261,39.9910121 13.4198323,39.8892714 C12.4457652,39.7978849 11.4630981,39.8023867 10.4872205,39.7272067 C9.78111241,39.6731851 9.07636222,39.5750459 8.37840152,39.455298 C8.23627463,39.4314385 8.12537945,39.2248059 8,39.1019068 C8.13760055,39.0132214 8.26660107,38.8655624 8.41370692,38.8448541 C9.39320559,38.7075492 10.3781359,38.6134616 11.3571819,38.4748062 C12.3701754,38.331649 13.3763795,38.1416731 14.3889204,37.9949145 C15.4168508,37.8459049 16.4515708,37.7419134 17.4781433,37.5852508 C18.235399,37.4695546 18.9799809,37.2669736 19.7385945,37.165233 C20.5053555,37.0621418 21.2856954,37.0612414 22.0547196,36.9685044 C22.9685864,36.8577601 23.8752111,36.6902932 24.7868148,36.5615418 C25.3023642,36.4886126 25.8215347,36.4408935 26.3397999,36.3864218 C27.4234043,36.2720761 28.5083665,36.1680845 29.5910656,36.0460858 C30.3460581,35.961452 31.0978822,35.8507077 31.8515168,35.7575205 C32.5540038,35.6706358 33.2569435,35.5878027 33.9603358,35.5103717 C34.3314952,35.4694054 34.6207279,35.3442554 34.8108339,34.9845616 C34.9556766,34.7113025 35.177467,34.4754082 35.3838678,34.2395139 C35.7532167,33.8172452 35.6097319,33.2774795 35.7405429,32.8025398 C36.0085019,31.8238487 36.3525033,30.9275406 37.51215,30.6322226 C38.5486805,30.3688674 38.5287646,30.317997 39.5272739,29.3122952 C40.4108143,28.4227397 41.3590813,27.592608 42.1991689,26.6652375 C42.7165288,26.0944094 43.2791521,25.5821047 43.8508281,25.0774531 C44.5148413,24.4913189 45.2304547,23.9628077 45.9107627,23.3946807 C46.4362701,22.9557553 46.9305457,22.4790148 47.4605794,22.0459418 C47.9041602,21.6839971 48.3744463,21.3544655 48.8456376,21.0289854 C48.9153432,20.9808162 49.113144,20.9956721 49.1534283,21.0514944 C49.2502919,21.1851978 49.3679766,21.3778748 49.3371975,21.5156299 C49.1466388,22.3687207 48.9167011,23.2132582 48.700795,24.0609469 C48.560026,24.6155685 48.4206149,25.1701901 48.2812038,25.7248117 C48.2721511,25.7617265 48.2680774,25.7995416 48.2630985,25.8373567 C48.1060347,26.8930285 47.9372024,27.9468996 47.7950755,29.0048223 C47.674675,29.9029312 47.5918431,30.8064422 47.4782321,31.7059016 C47.3872528,32.4284403 47.2754524,33.1478277 47.1659151,33.9171852 C47.5787168,33.8694661 47.9195497,33.8257986 48.2608353,33.791585 C48.6899318,33.7492681 49.1194808,33.7155046 49.5485773,33.6767891 C50.8114245,33.5624434 52.0742717,33.4431457 53.3371188,33.3328517 C54.5623974,33.226159 55.7881287,33.1199166 57.0147652,33.0285301 C58.5704661,32.9119335 60.1343145,32.8664653 61.6827734,32.6877439 C63.5725178,32.4694067 65.4586412,32.4734583 67.3501961,32.5630441 C67.5018283,32.570247 67.6693027,32.6269696 67.7973979,32.7093525 C68.0762201,32.8885241 68.0676201,33.0325817 67.7693347,33.1658349 C67.3578909,33.3495083 66.9423734,33.5340821 66.5128243,33.6673353 C65.3359775,34.0328814 64.1536991,34.3813206 62.9682522,34.7180552 C61.8706162,35.0291294 60.7693592,35.3302998 59.6631232,35.608511 C58.821225,35.8196453 57.9648427,35.9745072 57.1215866,36.1802394 C56.535879,36.3233966 55.9637504,36.5205754 55.380306,36.6731864 C55.1494629,36.7339606 54.8991567,36.7177542 54.6660505,36.7731263 C53.5928567,37.0283783 52.5250945,37.3065895 51.4505428,37.5577898 C50.6733713,37.7392123 49.8862418,37.8778677 49.1090703,38.0601906 C48.4360044,38.2186539 47.7697281,38.4059287 47.1057149,38.5990559 C47.0369146,38.6188638 46.9604195,38.7647221 46.9622301,38.8511566 C46.9744512,39.5709942 46.9816933,40.2930828 47.036462,41.0106695 C47.0934938,41.760219 47.1939784,42.5070674 47.3003472,43.2516649 C47.3098525,43.3191919 47.5013165,43.4164308 47.6013484,43.4087777 C48.2812038,43.3552063 48.9578907,43.2471631 49.6381987,43.2124993 C51.1241942,43.136869 52.6110949,43.0832976 54.0979956,43.0409807 C55.9239187,42.98921 57.7511997,42.9126795 59.5766702,42.9329376 C60.8612438,42.9473433 62.1435542,43.1058066 63.4267699,43.1998942 C63.4312962,43.2332075 63.4358225,43.2665209 63.4403489,43.3002843 C63.2918851,43.3286457 63.1429687,43.3813167 62.9940523,43.3813167 C61.7221525,43.3813167 60.4498,43.3534056 59.1783528,43.3691619 C57.6529783,43.3876192 56.1266984,43.4128293 54.6031344,43.487109 C52.7396427,43.5780453 50.8788669,43.7180513 49.0176383,43.8472529 C48.5885419,43.8769648 48.1612559,43.9359383 47.7375911,44.0084173 C47.6633592,44.0210223 47.5461272,44.1844376 47.5615167,44.2533151 C47.730349,45.0114181 47.9145707,45.7663697 48.1087505,46.5186203 C48.2305089,46.9926597 48.3531725,47.46895 48.5165732,47.9299342 C48.7659742,48.6340155 49.0380068,49.330894 49.3236185,50.0214699 C49.6626409,50.8434984 50.0333477,51.6529218 50.3651279,52.4776513 C50.3913807,52.5429274 50.2424643,52.7531614 50.1433376,52.7792719 C49.7540729,52.8841638 49.4286295,52.6793319 49.1208387,52.4781015 C48.5301522,52.0931977 47.9326761,51.715947 47.3691475,51.2945786 C46.8029031,50.8723099 46.2773958,50.3955694 45.7269935,49.9512419 C45.4762346,49.7486609 45.2091809,49.5667882 44.8425479,49.2971305"></path>
        </g>
    </g>
</svg>