<?xml version="1.0" encoding="UTF-8"?>
<svg width="18px" height="14px" viewBox="0 0 18 14" version="1.1" xmlns="http://www.w3.org/2000/svg" xmlns:xlink="http://www.w3.org/1999/xlink">
    <!-- Generator: Sketch 60.1 (88133) - https://sketch.com -->
    <title>medium</title>
    <desc>Created with Sketch.</desc>
    <g id="Mobile" stroke="none" stroke-width="1" fill="none" fill-rule="evenodd">
        <g transform="translate(-180.000000, -394.000000)" fill="#151515" fill-rule="nonzero" id="Group-2">
            <g transform="translate(180.000000, 390.000000)">
                <path d="M17.7502379,6 C17.7502379,6 17,6 17,6.7501426 C17,7.5002852 17,15.2504211 17,15.2504211 C17,15.2504211 17,16 17.7502379,16 L18,16 L18,18 L12,18 L12,16 L13,16 L13,6.6999512 L12.9000239,6.6999512 L9.8354487,18 L7.1365962,18 L4.0999756,6.6999512 L4,6.6999512 L4,16 L5,16 L5,18 L2.84217094e-14,18 L2.84217094e-14,16 L0.2497627,16 C0.2497627,16 1,16 1,15.2498569 C1,14.4997148 1,6.7495794 1,6.7495794 C1,6.7495794 1,6 0.2497626,6 L2.84217094e-14,6 L2.84217094e-14,4 L6.6340332,4 L8.960937,12.6591797 L9.0375972,12.6591797 L11.3859858,4 L18,4 L18,6 L17.7502379,6 Z" id="medium"></path>
            </g>
        </g>
    </g>
</svg>