<?xml version="1.0" standalone="no"?>
<!DOCTYPE svg PUBLIC "-//W3C//DTD SVG 20010904//EN"
 "http://www.w3.org/TR/2001/REC-SVG-20010904/DTD/svg10.dtd">
<svg version="1.0" xmlns="http://www.w3.org/2000/svg"
 width="960.000000pt" height="960.000000pt" viewBox="0 0 960.000000 960.000000"
 preserveAspectRatio="xMidYMid meet">
<metadata>
Created by potrace 1.11, written by Peter Selinger 2001-2013
</metadata>
<g transform="translate(0.000000,960.000000) scale(0.100000,-0.100000)"
fill="#000000" stroke="none">
<path d="M6514 7502 c-12 -9 -32 -24 -44 -32 -32 -22 -154 -113 -160 -120 -3
-3 -21 -18 -40 -34 -19 -16 -66 -57 -105 -91 -100 -90 -120 -107 -213 -179
-45 -36 -89 -71 -96 -78 -8 -7 -29 -24 -47 -38 -67 -52 -140 -120 -365 -345
-359 -358 -546 -538 -580 -557 -16 -9 -62 -26 -101 -37 -181 -50 -254 -123
-309 -306 -21 -71 -20 -64 -28 -144 -8 -70 -23 -115 -52 -147 -22 -25 -50 -61
-94 -122 -36 -50 -74 -69 -156 -77 -33 -3 -68 -7 -79 -9 -11 -2 -51 -7 -90
-11 -72 -7 -81 -8 -175 -20 -55 -6 -71 -8 -145 -19 -22 -3 -60 -8 -85 -11 -25
-3 -63 -8 -85 -10 -22 -3 -62 -7 -90 -10 -27 -3 -66 -8 -85 -10 -19 -3 -62 -7
-95 -10 -33 -4 -77 -8 -98 -10 -20 -2 -63 -7 -95 -10 -31 -3 -79 -7 -107 -10
-27 -3 -68 -8 -90 -10 -66 -7 -129 -15 -155 -20 -27 -5 -88 -15 -135 -20 -16
-2 -41 -6 -55 -9 -14 -2 -45 -7 -70 -10 -25 -3 -55 -8 -67 -10 -27 -6 -131
-16 -203 -22 -232 -16 -244 -17 -452 -58 -68 -14 -143 -27 -168 -31 -25 -3
-56 -8 -70 -10 -14 -3 -45 -7 -70 -10 -107 -13 -127 -16 -165 -21 -22 -3 -56
-7 -76 -9 -20 -2 -45 -5 -55 -9 -11 -3 -44 -8 -74 -11 -70 -7 -91 -10 -165
-24 -33 -6 -76 -13 -95 -16 -19 -3 -60 -10 -90 -15 -59 -10 -108 -17 -180 -25
-25 -3 -61 -7 -80 -10 -19 -2 -59 -7 -88 -10 -29 -4 -62 -8 -73 -10 -11 -2
-48 -7 -82 -10 -57 -6 -121 -28 -132 -44 -2 -4 6 -19 18 -33 25 -29 43 -34
182 -53 99 -14 111 -15 175 -20 62 -5 100 -7 370 -20 63 -3 126 -7 140 -10 14
-2 50 -6 80 -9 30 -3 64 -8 75 -10 11 -2 47 -7 80 -11 32 -4 68 -9 78 -11 18
-3 91 -12 162 -19 73 -7 163 -16 195 -20 64 -8 154 -16 216 -20 34 -3 76 -7
95 -9 19 -2 70 -7 114 -11 44 -4 89 -9 100 -11 11 -2 45 -6 75 -9 30 -3 64 -7
75 -9 11 -2 45 -7 75 -10 30 -4 73 -10 95 -13 22 -3 51 -7 65 -8 14 -1 44 -5
68 -9 23 -3 60 -8 82 -11 22 -3 57 -7 79 -10 21 -3 56 -8 77 -10 38 -5 91 -12
145 -21 15 -2 44 -6 65 -9 59 -8 96 -13 129 -18 17 -3 50 -8 75 -12 35 -6 178
-37 265 -58 77 -19 33 -57 -105 -91 -58 -14 -117 -28 -132 -30 -15 -3 -31 -7
-36 -10 -5 -3 -19 -7 -33 -9 -13 -3 -73 -17 -134 -32 -60 -14 -117 -28 -125
-30 -102 -24 -193 -49 -280 -78 -58 -19 -179 -58 -270 -87 -247 -78 -469 -150
-525 -170 -50 -18 -177 -59 -205 -66 -78 -18 -340 -112 -605 -217 -307 -122
-340 -139 -358 -189 -8 -22 17 -48 49 -49 24 -2 42 -5 47 -9 17 -15 329 -20
407 -7 56 10 81 14 145 22 28 4 66 9 85 12 19 2 46 6 60 8 38 5 224 34 315 50
44 8 97 17 117 20 90 13 114 16 128 20 8 2 35 7 60 10 25 3 83 12 130 20 141
23 164 27 190 30 14 2 39 5 55 8 17 3 50 8 75 12 25 4 117 24 205 45 88 21
176 41 195 43 19 3 64 10 100 15 36 6 85 14 110 17 25 3 56 8 70 10 14 3 44 7
67 10 23 2 64 10 90 16 26 6 62 12 78 15 17 2 41 6 55 9 74 15 208 27 230 20
19 -6 25 -24 35 -105 7 -65 16 -111 31 -163 8 -29 16 -60 18 -69 11 -41 85
-213 137 -318 86 -170 128 -228 273 -374 119 -119 140 -136 231 -182 55 -28
134 -70 175 -92 72 -39 172 -76 235 -87 17 -2 41 -8 55 -11 48 -12 385 -12
478 1 70 9 111 21 169 50 76 38 193 112 193 124 0 3 25 33 55 66 65 72 99 131
120 211 16 58 20 162 10 217 -12 67 -15 86 -21 155 l-7 74 99 -75 c55 -42 110
-86 124 -99 65 -59 185 -151 285 -219 61 -41 112 -76 115 -79 6 -6 31 -21 105
-62 70 -39 132 -35 149 8 4 9 -29 98 -79 216 -47 109 -85 201 -85 204 0 2 -9
23 -19 47 -63 140 -132 345 -180 534 -80 314 -86 347 -69 360 23 19 169 35
518 57 30 2 98 7 150 10 173 12 376 25 510 32 41 2 347 6 680 9 333 3 620 8
638 11 39 6 43 24 5 25 -16 1 -39 2 -53 4 -14 2 -65 6 -115 10 -49 4 -110 8
-135 11 -25 2 -76 6 -115 9 -76 5 -520 5 -705 0 -766 -23 -1163 -39 -1178 -49
-8 -5 -186 -19 -216 -18 -26 1 -39 17 -41 49 -1 16 -5 42 -8 58 -3 17 -9 59
-13 95 -3 36 -8 73 -10 83 -4 24 -16 249 -18 361 -2 68 1 93 13 107 18 20 308
100 487 133 62 11 224 47 319 71 55 13 109 26 120 28 11 2 27 7 35 10 33 12
230 57 300 68 41 6 113 22 160 36 47 14 90 26 95 27 6 2 17 6 25 9 16 6 217
53 266 61 58 11 243 56 394 96 85 23 162 43 170 45 94 22 743 216 815 244 97
37 165 72 165 84 -1 20 -23 42 -55 55 -17 7 -101 15 -195 18 -91 3 -169 5
-175 6 -17 1 -387 -13 -430 -16 -61 -5 -176 -17 -214 -22 -19 -2 -66 -6 -105
-9 -39 -3 -96 -7 -126 -10 -69 -6 -207 -15 -325 -20 -49 -2 -108 -6 -130 -9
-22 -2 -80 -7 -130 -11 -103 -7 -174 -13 -260 -20 -33 -3 -87 -7 -120 -10 -33
-3 -80 -7 -105 -10 -25 -3 -76 -7 -115 -10 -38 -3 -90 -8 -115 -10 -25 -3 -72
-7 -105 -10 -68 -6 -136 -12 -210 -19 -27 -3 -81 -8 -120 -11 -38 -3 -86 -8
-105 -10 -19 -2 -62 -7 -95 -10 -33 -3 -68 -8 -77 -11 -10 -3 -18 -1 -18 5 0
13 20 160 26 191 3 14 7 48 10 75 3 28 7 61 10 75 4 22 9 69 19 160 7 71 17
158 20 180 2 14 7 52 10 85 3 33 8 67 10 75 5 15 10 55 20 140 3 25 8 52 10
60 2 8 7 35 10 60 3 25 8 56 10 70 2 14 7 45 10 70 7 49 39 182 105 435 23 88
50 197 60 242 17 79 17 82 -1 112 -21 35 -52 40 -85 13z m-31 -171 c-4 -23
-23 -120 -29 -146 -1 -5 -4 -21 -7 -35 -3 -14 -10 -45 -17 -70 -7 -25 -14 -56
-17 -70 -2 -14 -13 -63 -23 -110 -10 -47 -21 -96 -24 -110 -3 -14 -7 -36 -10
-50 -3 -14 -10 -50 -16 -80 -5 -30 -12 -71 -16 -90 -8 -44 -12 -66 -18 -110
-3 -19 -8 -46 -11 -60 -3 -14 -8 -43 -10 -65 -3 -22 -9 -71 -15 -110 -12 -87
-22 -185 -35 -329 -3 -27 -7 -71 -10 -97 -3 -27 -7 -71 -10 -97 -3 -27 -8 -59
-11 -73 -2 -13 -7 -42 -10 -64 -8 -61 -23 -113 -35 -120 -5 -4 -24 -8 -42 -10
-18 -3 -50 -7 -72 -9 -22 -3 -71 -8 -110 -12 -38 -3 -79 -8 -90 -10 -11 -3
-42 -6 -70 -9 -147 -14 -172 -17 -195 -20 -25 -3 -93 -10 -220 -20 -36 -3 -81
-8 -100 -10 -19 -3 -64 -7 -100 -10 -36 -3 -81 -7 -100 -10 -19 -2 -59 -7 -89
-10 -30 -4 -62 -8 -72 -10 -10 -2 -49 -7 -86 -10 -37 -4 -70 -9 -73 -10 -3 -2
-42 -7 -86 -10 -82 -7 -102 0 -108 37 -1 7 -5 19 -10 27 -5 7 -8 37 -8 65 0
51 11 85 38 116 7 8 21 24 31 35 45 51 154 186 193 240 69 93 89 113 149 143
55 27 58 27 256 27 110 -1 216 -4 235 -7 19 -4 49 -9 65 -12 58 -11 145 -45
180 -72 41 -31 70 -84 80 -147 13 -76 14 -81 29 -95 19 -19 51 -1 63 35 23 69
-18 175 -99 256 -42 42 -69 59 -128 80 -41 15 -85 29 -98 32 -13 2 -31 6 -40
9 -35 10 -162 18 -289 17 -73 0 -133 3 -133 8 0 39 369 414 715 726 17 15 50
46 75 69 51 46 125 110 250 216 115 97 116 98 190 155 36 28 67 52 70 55 14
15 103 67 114 67 8 0 11 -10 9 -26z m-1733 -1455 c0 -3 -6 -11 -13 -18 -7 -7
-35 -40 -62 -73 -28 -33 -62 -73 -77 -90 -16 -16 -28 -33 -28 -37 0 -5 -5 -8
-11 -8 -14 0 -6 57 14 96 20 38 89 101 131 120 33 14 46 17 46 10z m4550 -305
c0 -7 -78 -40 -110 -46 -3 -1 -45 -14 -95 -29 -49 -16 -124 -39 -165 -51 -41
-13 -86 -27 -100 -31 -14 -5 -27 -8 -30 -9 -4 -1 -33 -10 -201 -61 -25 -8 -55
-16 -67 -19 -12 -2 -26 -6 -30 -9 -5 -3 -19 -7 -33 -10 -13 -3 -82 -21 -154
-40 -71 -19 -177 -44 -235 -56 -119 -25 -110 -23 -210 -50 -41 -11 -84 -22
-94 -25 -10 -2 -33 -9 -50 -14 -17 -5 -114 -26 -216 -46 -102 -20 -221 -45
-265 -56 -44 -12 -87 -22 -95 -24 -8 -2 -80 -20 -160 -40 -80 -20 -156 -39
-169 -41 -12 -3 -51 -11 -85 -19 -33 -8 -77 -17 -96 -20 -19 -3 -42 -8 -50
-10 -8 -2 -26 -6 -40 -9 -14 -2 -87 -19 -163 -36 -104 -25 -141 -30 -150 -21
-10 10 -11 66 -2 263 1 36 6 71 9 76 4 6 2 13 -4 17 -6 4 -8 10 -5 15 3 5 7
44 10 87 5 84 22 112 69 114 11 0 35 2 51 4 17 1 73 6 125 9 52 4 115 9 140
11 25 2 79 6 120 9 41 4 91 8 110 11 38 4 127 13 205 20 28 2 73 6 100 9 59 6
149 14 225 21 149 13 179 16 235 20 33 3 89 8 125 11 78 8 106 10 230 18 52 4
118 9 145 11 28 3 82 7 120 9 81 5 224 16 275 21 19 2 82 7 140 11 58 3 106 7
108 9 9 8 532 5 532 -4z m-4849 -266 c12 -25 19 -49 15 -53 -4 -3 -32 -8 -62
-10 -45 -3 -54 -1 -47 10 23 38 66 98 69 98 2 0 13 -20 25 -45z m1700 23 c3
-21 1 -48 -6 -148 -4 -52 -8 -163 -10 -246 -1 -84 -5 -157 -9 -163 -4 -6 -30
-17 -59 -25 -158 -44 -506 -136 -532 -140 -62 -12 -207 -43 -345 -76 -47 -11
-114 -23 -150 -26 -84 -8 -90 -2 -170 151 -35 66 -66 125 -70 130 -26 35 -180
346 -180 363 0 31 -10 29 205 48 102 9 148 13 193 19 23 3 63 7 90 10 26 3 61
8 77 10 17 3 57 7 90 10 33 3 69 7 80 9 11 2 58 7 105 11 47 4 94 9 104 11 11
2 49 6 85 9 112 9 204 19 291 31 19 2 55 7 80 10 25 4 47 8 49 10 11 10 81 3
82 -8z m-1642 -193 c12 -13 42 -70 196 -370 70 -137 134 -259 141 -270 24 -34
16 -43 -53 -60 -99 -23 -106 -25 -128 -30 -11 -2 -155 -39 -320 -81 -165 -41
-307 -77 -315 -79 -8 -2 -41 -10 -72 -18 -84 -22 -84 -23 -30 143 3 8 6 20 7
25 2 6 26 75 55 155 55 154 118 296 154 345 12 17 40 65 61 108 47 93 70 116
130 131 54 14 160 15 174 1z m-343 -34 c4 0 1 -8 -6 -16 -21 -25 -57 -93 -121
-225 -86 -176 -119 -260 -184 -460 -31 -96 -61 -185 -67 -197 -16 -33 0 -35
-323 42 -60 15 -117 28 -125 30 -8 2 -37 9 -65 15 -55 12 -84 17 -160 25 -53
6 -63 7 -165 24 -36 5 -83 12 -105 16 -22 3 -51 7 -65 10 -14 2 -45 6 -70 9
-25 3 -56 8 -70 11 -14 3 -50 7 -80 10 -30 3 -66 7 -80 9 -14 3 -56 7 -93 11
-37 3 -77 8 -87 10 -10 2 -43 6 -72 10 -29 3 -69 8 -88 10 -80 11 -194 25
-245 30 -16 1 -51 5 -77 9 -95 12 -191 21 -328 31 -80 6 -148 12 -208 20 -20
3 -59 7 -87 10 -27 3 -61 7 -75 10 -26 5 -63 10 -150 21 -30 4 -66 8 -80 10
-59 7 -163 15 -264 19 -174 7 -162 27 29 50 17 1 44 5 60 8 17 3 53 8 80 12
28 3 77 10 110 15 33 5 83 12 110 16 28 3 57 7 65 9 8 2 51 8 95 15 44 6 91
13 105 16 14 2 39 6 55 9 17 3 67 12 112 21 46 8 104 17 130 19 27 3 73 8 103
11 30 3 71 7 90 9 19 2 58 6 85 9 28 4 68 8 90 10 22 2 56 7 75 10 19 3 60 8
90 11 108 11 126 13 179 20 30 4 62 8 71 10 9 2 43 6 76 9 32 4 68 9 79 11 11
2 43 7 70 10 28 3 64 8 80 10 111 15 230 31 303 40 77 9 222 27 254 30 34 4
103 12 173 20 22 2 49 7 61 9 11 2 54 7 96 10 41 4 86 9 99 11 23 5 50 8 159
21 25 3 58 7 75 9 16 3 55 7 85 11 30 3 72 9 93 13 33 5 83 6 103 2z m1969
-462 c2 -13 6 -78 9 -144 8 -142 13 -205 20 -265 5 -46 15 -154 20 -225 4 -53
-8 -83 -37 -94 -23 -9 -101 -17 -247 -26 -116 -7 -253 -20 -320 -30 -19 -2
-60 -7 -90 -11 -30 -3 -57 -7 -58 -9 -13 -13 -69 25 -101 69 -47 63 -201 292
-201 299 0 2 -22 43 -50 91 -27 48 -50 91 -50 95 0 13 23 29 50 35 25 4 111
24 140 32 128 33 259 66 275 69 11 2 27 6 35 8 8 2 29 7 45 11 17 4 66 17 110
28 44 11 87 21 95 23 8 2 15 4 15 5 0 1 9 3 20 5 11 2 49 11 85 20 36 9 81 19
100 22 19 3 51 8 70 12 51 11 63 7 65 -20z m-1205 -282 c9 -7 33 -43 55 -82
21 -38 92 -153 157 -254 65 -101 118 -187 118 -191 0 -26 -140 -44 -335 -44
-102 -1 -116 2 -195 33 -47 19 -123 52 -170 73 -79 37 -256 106 -290 113 -8 2
-55 15 -105 30 -49 14 -94 28 -100 29 -5 2 -30 8 -55 15 -49 13 -87 37 -77 47
5 6 233 67 295 80 13 3 130 32 260 65 130 33 244 62 252 64 8 2 35 10 60 18
56 19 110 20 130 4z m-1184 -364 c-3 -49 -8 -151 -12 -228 -3 -84 -10 -145
-17 -152 -12 -12 -37 -18 -117 -28 -25 -3 -56 -7 -70 -10 -31 -5 -93 -15 -140
-21 -19 -2 -46 -6 -60 -9 -14 -2 -45 -7 -70 -10 -25 -3 -63 -8 -85 -12 -22 -3
-47 -7 -55 -8 -8 -1 -33 -5 -55 -8 -22 -4 -58 -10 -80 -13 -22 -3 -53 -7 -70
-9 -16 -2 -61 -11 -100 -20 -77 -17 -73 -16 -200 -45 -49 -11 -130 -27 -180
-34 -49 -8 -106 -17 -125 -20 -19 -3 -44 -8 -56 -10 -12 -2 -45 -7 -75 -11
-30 -3 -61 -8 -69 -10 -8 -2 -37 -6 -65 -10 -112 -13 -309 -48 -450 -79 -82
-19 -179 -37 -215 -40 -36 -4 -87 -9 -115 -12 -27 -3 -66 -7 -85 -9 -175 -20
-296 -23 -312 -7 -17 17 770 316 917 348 6 1 87 25 180 54 94 29 175 53 180
54 6 1 143 46 305 99 162 53 356 112 430 130 74 19 176 47 225 62 111 33 374
99 440 111 17 3 59 13 95 24 36 10 75 19 88 19 23 1 23 0 18 -86z m219 22
c112 -29 655 -246 655 -261 0 -13 -115 -38 -130 -29 -6 3 -10 2 -10 -2 0 -5
-8 -9 -17 -10 -22 -1 -97 -11 -126 -18 -12 -2 -40 -7 -62 -10 -22 -3 -67 -10
-100 -16 -80 -15 -98 -17 -180 -24 -38 -3 -89 -8 -111 -10 -56 -5 -77 11 -77
61 0 35 8 157 18 269 2 22 4 48 4 57 1 15 8 17 44 12 23 -3 65 -12 92 -19z
m2269 -267 c10 -46 19 -90 21 -98 2 -8 11 -44 20 -80 9 -36 19 -76 22 -89 2
-14 6 -28 9 -33 3 -4 7 -16 9 -25 5 -28 93 -311 121 -393 15 -41 58 -151 96
-243 39 -93 67 -171 64 -174 -9 -9 -50 14 -161 89 -98 67 -158 109 -191 136
-16 12 -56 43 -89 68 -33 25 -69 52 -80 62 -37 30 -139 98 -179 117 -43 22
-77 64 -137 170 -31 55 -187 306 -239 385 -30 45 -51 93 -43 100 4 5 40 11 78
14 39 3 81 8 95 11 14 3 48 7 75 10 97 10 150 16 175 20 29 4 100 12 185 21
33 3 62 8 64 10 2 2 19 4 36 4 31 0 32 0 49 -82z m-894 -32 c8 -4 44 -50 80
-102 36 -53 71 -102 78 -109 6 -8 12 -16 12 -19 0 -3 18 -31 40 -62 22 -32 40
-68 40 -81 l0 -24 -50 27 c-27 15 -50 31 -50 36 0 4 -4 8 -10 8 -5 0 -49 26
-97 58 -153 101 -242 157 -314 198 -56 32 -40 47 62 58 30 4 77 10 104 14 53
9 81 8 105 -2z m-480 -59 c8 -3 24 -8 35 -13 11 -4 22 -8 25 -8 31 -7 348
-191 370 -216 4 -5 304 -221 374 -270 65 -45 84 -78 139 -235 27 -79 31 -103
31 -195 0 -83 -5 -119 -23 -170 -27 -79 -78 -159 -134 -211 -40 -37 -165 -108
-217 -123 -124 -36 -158 -41 -320 -40 -122 0 -159 3 -240 19 -14 3 -41 8 -60
11 -112 19 -314 111 -444 201 -97 67 -237 205 -293 288 -38 57 -57 89 -136
235 -36 68 -81 185 -90 236 -3 16 -17 85 -30 154 -14 69 -25 132 -26 140 0 8
-2 26 -3 39 -2 15 3 25 12 27 51 10 201 36 235 39 22 3 49 7 60 9 20 4 69 11
140 21 49 7 63 9 190 30 251 41 357 49 405 32z"/>
</g>
</svg>
